<svg width="26" height="25" fill="none" xmlns="http://www.w3.org/2000/svg"><path d="M16.794 23.484h7.276a.563.563 0 00.558-.567V11.449a.565.565 0 00-.558-.576h-1.675v1.867-.21 2.022a2.24 2.24 0 01-2.242 2.242h-3.36v5.601H8.96v-5.601H5.6a2.24 2.24 0 01-2.242-2.242v-3.68H1.675a.57.57 0 00-.558.577v11.468c0 .31.256.567.558.567H8.96v-1.089h1.116v1.09h5.601v-1.09h1.117v1.09zm-6.718-2.215h5.601v-1.116h-5.6v1.116zm0-2.233h5.601v-2.242h-5.6v2.242zm-4.475-3.359h14.552c.622 0 1.116-.503 1.116-1.125v-9.4c0-2.214-1.757-4.008-3.917-4.008s-3.917 1.794-3.917 4.009a.563.563 0 01-.558.567.562.562 0 01-.558-.567c0-2.215-1.758-4.009-3.917-4.009-2.17 0-3.927 1.794-3.927 4.009v9.399c0 .622.504 1.125 1.126 1.125zM24.07 9.73c.933 0 1.684.768 1.684 1.72v11.468c0 .942-.75 1.711-1.684 1.711H1.675C.75 24.628 0 23.86 0 22.917V11.449c0-.952.75-1.72 1.675-1.72h1.684V5.153C3.359 2.306 5.619 0 8.402 0c1.94 0 3.633 1.135 4.475 2.791C13.71 1.135 15.403 0 17.352 0c2.782 0 5.043 2.306 5.043 5.153v4.576h1.675zm-8.457-1.08c-.027.055-.732 1.427-2.736 1.427-2.004 0-2.71-1.372-2.737-1.427a.553.553 0 01.247-.75.568.568 0 01.751.237c.018.055.458.824 1.739.824 1.281 0 1.72-.787 1.739-.824a.559.559 0 01.75-.229.55.55 0 01.247.742z" fill="#00BA97"/></svg>