<svg width="25" height="25" fill="none" xmlns="http://www.w3.org/2000/svg"><path fill-rule="evenodd" clip-rule="evenodd" d="M16.848 3.26a4.897 4.897 0 014.891 4.892v5.435a2.72 2.72 0 01-2.174 2.662v2.773a2.72 2.72 0 01-2.717 2.717 2.72 2.72 0 01-2.718-2.717v-1.087c0-.899-.731-1.63-1.63-1.63-.899 0-1.63.731-1.63 1.63v1.087a2.72 2.72 0 01-2.718 2.717 2.72 2.72 0 01-2.717-2.717v-2.773a2.722 2.722 0 01-2.174-2.662V8.152a4.897 4.897 0 014.891-4.891A4.897 4.897 0 0112.5 5.912a4.897 4.897 0 014.348-2.651zm3.804 10.327V8.152a3.809 3.809 0 00-3.804-3.804 3.809 3.809 0 00-3.804 3.804.544.544 0 01-1.088 0 3.809 3.809 0 00-3.804-3.804 3.809 3.809 0 00-3.804 3.804v5.435c0 .899.731 1.63 1.63 1.63.3 0 .544.243.544.544v3.26c0 .9.731 1.631 1.63 1.631.899 0 1.63-.732 1.63-1.63v-1.087a2.72 2.72 0 012.718-2.718 2.72 2.72 0 012.717 2.718v1.087c0 .899.732 1.63 1.63 1.63.9 0 1.631-.732 1.631-1.63V15.76c0-.3.244-.544.544-.544.899 0 1.63-.731 1.63-1.63zm-5.73-3.196a.54.54 0 01.238.721c-.029.057-.716 1.388-2.66 1.388-1.944 0-2.631-1.331-2.66-1.387a.544.544 0 01.97-.492c.024.045.452.792 1.69.792 1.249 0 1.674-.761 1.691-.793a.549.549 0 01.731-.229zm4.1-9.304a.543.543 0 010-1.087h3.26A2.717 2.717 0 0125 2.717v3.261a.543.543 0 11-1.087 0v-3.26a1.63 1.63 0 00-1.63-1.631h-3.261zm0 22.826h3.26a1.63 1.63 0 001.631-1.63v-3.261a.544.544 0 011.087 0v3.26A2.717 2.717 0 0122.283 25h-3.261a.543.543 0 010-1.087zM5.978 1.087h-3.26a1.63 1.63 0 00-1.631 1.63v3.261a.543.543 0 01-1.087 0v-3.26A2.717 2.717 0 012.717 0h3.261a.543.543 0 110 1.087zm0 22.826a.544.544 0 010 1.087h-3.26A2.717 2.717 0 010 22.283v-3.261a.543.543 0 011.087 0v3.26c0 .901.73 1.631 1.63 1.631h3.261z" fill="#06BA98"/></svg>