<svg width="25" height="25" fill="none" xmlns="http://www.w3.org/2000/svg"><path fill-rule="evenodd" clip-rule="evenodd" d="M12.5 25C19.404 25 25 19.404 25 12.5S19.404 0 12.5 0C5.597 0 0 5.597 0 12.5 0 19.404 5.597 25 12.5 25zm11.413-12.5c0-6.303-5.11-11.413-11.413-11.413-6.302 0-11.413 5.11-11.413 11.413S6.197 23.913 12.5 23.913c6.304 0 11.413-5.109 11.413-11.413zm-11.957 4.823v-4.325a3.261 3.261 0 010-6.431V5.435a.543.543 0 111.088 0v1.132a3.262 3.262 0 012.717 3.216.543.543 0 11-1.087 0 2.175 2.175 0 00-1.63-2.106v4.325a3.262 3.262 0 010 6.431v1.132a.543.543 0 11-1.088 0v-1.132a3.261 3.261 0 01-2.717-3.216.543.543 0 111.087 0c0 1.014.693 1.865 1.63 2.106zm1.088 0a2.174 2.174 0 000-4.211v4.21zm-2.718-7.54c0-1.013.693-1.864 1.63-2.106v4.211a2.174 2.174 0 01-1.63-2.105z" fill="#06BA98"/></svg>