<svg width="22" height="25" fill="none" xmlns="http://www.w3.org/2000/svg"><path d="M11.55 14.285h0a.662.662 0 01-.137.21l-.008.007-2.034 2.04s0 0 0 0a.66.66 0 01-.937 0h0a.667.667 0 010-.941l1.811-1.817.03-.029V6.888a.664.664 0 111.326 0v7.152s0 0 0 0a.669.669 0 01-.05.245zM5.356 23.57h.362l-.31-.185a10.909 10.909 0 01-2.134-1.668A10.814 10.814 0 01.1 14.032c0-2.904 1.127-5.633 3.174-7.686A10.892 10.892 0 015.645 4.54l.05-.029V2.296A2.197 2.197 0 017.886.1h6.105c1.207 0 2.19.985 2.19 2.196V4.51l.05.029a10.894 10.894 0 012.37 1.805 10.814 10.814 0 013.175 7.686c0 2.903-1.127 5.632-3.174 7.685a10.91 10.91 0 01-2.133 1.668l-.311.185h2.92a.664.664 0 010 1.331H2.798a.664.664 0 010-1.33h2.558zM7.022 3.744v.144l.135-.05a10.813 10.813 0 013.78-.677 10.8 10.8 0 013.781.677l.135.05V2.296a.865.865 0 00-.863-.865H7.885a.865.865 0 00-.863.865v1.448zm4.579 19.695v.108l.108-.009c4.63-.374 8.335-4.09 8.709-8.734l.009-.108h-1.969a.664.664 0 010-1.33h1.969l-.01-.109c-.393-4.899-4.494-8.765-9.48-8.765-4.985 0-9.086 3.866-9.48 8.765l-.009.108h1.969a.664.664 0 010 1.33H1.448l.01.109c.372 4.644 4.077 8.36 8.708 8.734l.108.01v-1.975a.664.664 0 111.327 0v1.866z" fill="#00BA97" stroke="#F9F9F9" stroke-width=".2"/></svg>