<svg width="20" height="25" fill="none" xmlns="http://www.w3.org/2000/svg"><path d="M13.168 4.315a2.508 2.508 0 00-1.34.382 2.606 2.606 0 00-.947 1.044 1.067 1.067 0 01-.386.427 1.027 1.027 0 01-1.091 0 1.066 1.066 0 01-.386-.427 2.59 2.59 0 00-1.213-1.16 2.495 2.495 0 00-1.65-.153 2.554 2.554 0 00-1.395.917 2.68 2.68 0 00-.56 1.603v5.201a1 1 0 00.216.62.953.953 0 00.546.34c.237.05.45.182.603.375a1.1 1.1 0 01.236.683v2.105c.021.245.13.472.307.638a.942.942 0 00.645.258.94.94 0 00.646-.258.994.994 0 00.307-.638v-.831c-.018-.315.027-.63.132-.927.105-.296.268-.568.478-.797.21-.23.465-.412.746-.537a2.198 2.198 0 011.784 0c.282.125.536.307.746.537a2.338 2.338 0 01.611 1.724v.827c.02.245.13.472.307.638a.942.942 0 00.645.258c.239 0 .47-.092.646-.258a.994.994 0 00.307-.638v-2.1c0-.25.082-.49.235-.684.153-.193.366-.325.603-.375a.952.952 0 00.547-.34 1 1 0 00.215-.62v-5.2a2.676 2.676 0 00-.75-1.86 2.53 2.53 0 00-1.807-.774h.016zm-3.205.936a3.655 3.655 0 011.707-1.67 3.517 3.517 0 012.345-.23A3.6 3.6 0 0116 4.656c.5.652.774 1.457.777 2.288v5.2c0 .476-.16.936-.452 1.305a2 2 0 01-1.152.717v2.105a2.11 2.11 0 01-.587 1.458 2.002 2.002 0 01-.65.446 1.956 1.956 0 01-2.185-.446 2.066 2.066 0 01-.434-.67 2.102 2.102 0 01-.153-.788v-.831a1.25 1.25 0 00-.398-.774 1.183 1.183 0 00-1.593.001c-.22.199-.361.474-.398.773v.827c0 .547-.211 1.071-.587 1.457a1.977 1.977 0 01-1.417.604 1.977 1.977 0 01-1.418-.604 2.091 2.091 0 01-.587-1.457v-2.1a2 2 0 01-1.152-.718 2.102 2.102 0 01-.452-1.305v-5.2a3.778 3.778 0 01.783-2.274 3.6 3.6 0 011.977-1.298 3.517 3.517 0 012.335.225c.732.34 1.333.922 1.707 1.654zM1.05 1.079v13.477a9.398 9.398 0 00.624 3.566 9.196 9.196 0 001.92 3.038 8.906 8.906 0 002.914 2.036 8.7 8.7 0 006.906 0 8.905 8.905 0 002.914-2.036 9.196 9.196 0 001.92-3.038 9.4 9.4 0 00.624-3.566V1.078H1.05zM1.05 0h17.822c.278 0 .544.114.741.316.197.202.307.476.307.762v13.477a10.504 10.504 0 01-.701 3.982 10.278 10.278 0 01-2.146 3.391 9.952 9.952 0 01-3.255 2.273A9.724 9.724 0 019.96 25a9.724 9.724 0 01-3.857-.8 9.952 9.952 0 01-3.255-2.272 10.278 10.278 0 01-2.146-3.391 10.503 10.503 0 01-.701-3.982V1.078A1.104 1.104 0 01.309.316 1.047 1.047 0 011.049 0z" fill="#00BA97"/></svg>