<svg width="52" height="52" viewBox="0 0 52 52" fill="none" xmlns="http://www.w3.org/2000/svg">
<path fill-rule="evenodd" clip-rule="evenodd" d="M33.8661 18.8212C34.2069 18.4714 34.7411 18.4916 35.0593 18.8666C35.3773 19.2414 35.3589 19.829 35.0181 20.179L22.3557 33.179C22.0232 33.5203 21.5045 33.5105 21.1829 33.1567L16.9621 28.5139C16.6324 28.1513 16.6324 27.5633 16.9621 27.2007C17.2917 26.8381 17.8262 26.8381 18.1559 27.2007L21.8 31.2091L33.8661 18.8212Z" fill="#00BA97" stroke="#00BA97" stroke-width="0.5"/>
<path d="M45.502 26.0017C45.502 15.2361 36.7676 6.50173 26.002 6.50173C15.2363 6.50173 6.50195 15.2361 6.50195 26.0017C6.50195 36.7673 15.2363 45.5017 26.002 45.5017C36.7676 45.5017 45.502 36.7673 45.502 26.0017Z" stroke="#00BA97" stroke-width="2.5" stroke-miterlimit="10"/>
</svg>
