<svg width="26" height="25" viewBox="0 0 26 25" fill="none" xmlns="http://www.w3.org/2000/svg">
<path d="M16.7939 23.4841H24.0698C24.381 23.4841 24.6281 23.2278 24.6281 22.9166V11.4492C24.6281 11.1288 24.381 10.8726 24.0698 10.8726H22.395V12.7396V12.5291V14.5517C22.395 15.7964 21.3882 16.7939 20.1527 16.7939H16.7939V22.395H8.95982V16.7939H5.60103C4.36551 16.7939 3.35879 15.7964 3.35879 14.5517V10.8726H1.67482C1.3728 10.8726 1.11655 11.1288 1.11655 11.4492V22.9166C1.11655 23.2278 1.3728 23.4841 1.67482 23.4841H8.95982V22.395H10.0764V23.4841H15.6774V22.395H16.7939V23.4841ZM10.0764 21.2693H15.6774V20.1527H10.0764V21.2693ZM10.0764 19.0362H15.6774V16.7939H10.0764V19.0362ZM5.60103 15.6774H20.1527C20.7751 15.6774 21.2693 15.174 21.2693 14.5517V5.15258C21.2693 2.9378 19.5121 1.144 17.3522 1.144C15.1923 1.144 13.4352 2.9378 13.4352 5.15258C13.4352 5.46375 13.188 5.72001 12.8769 5.72001C12.5657 5.72001 12.3186 5.46375 12.3186 5.15258C12.3186 2.9378 10.5614 1.144 8.40155 1.144C6.23252 1.144 4.47533 2.9378 4.47533 5.15258V14.5517C4.47533 15.174 4.97869 15.6774 5.60103 15.6774ZM24.0698 9.72859C25.0033 9.72859 25.7538 10.4974 25.7538 11.4492V22.9166C25.7538 23.8593 25.0033 24.6281 24.0698 24.6281H1.67482C0.750465 24.6281 0 23.8593 0 22.9166V11.4492C0 10.4974 0.750465 9.72859 1.67482 9.72859H3.35879V5.15258C3.35879 2.30631 5.61933 0 8.40155 0C10.3418 0 12.0349 1.13485 12.8769 2.79136C13.7097 1.13485 15.4028 0 17.3522 0C20.1344 0 22.395 2.30631 22.395 5.15258V9.72859H24.0698ZM15.6133 8.64865C15.5859 8.70356 14.8812 10.0764 12.8769 10.0764C10.8726 10.0764 10.1679 8.70356 10.1404 8.64865C9.994 8.37409 10.113 8.03547 10.3875 7.89819C10.6621 7.76091 10.9916 7.87073 11.138 8.13614C11.1563 8.19105 11.5956 8.95982 12.8769 8.95982C14.1582 8.95982 14.5975 8.17275 14.6158 8.13614C14.7622 7.87073 15.1008 7.76091 15.3662 7.90734C15.6408 8.04462 15.7506 8.37409 15.6133 8.64865Z" fill="#00BA97"/>
</svg>
