<svg width="25" height="25" viewBox="0 0 25 25" fill="none" xmlns="http://www.w3.org/2000/svg">
<path fill-rule="evenodd" clip-rule="evenodd" d="M16.8478 3.26087C19.5445 3.26087 21.7391 5.45549 21.7391 8.15217V13.587C21.7391 14.8995 20.8037 15.9968 19.5652 16.2494V19.0217C19.5652 20.5201 18.3461 21.7391 16.8478 21.7391C15.3495 21.7391 14.1304 20.5201 14.1304 19.0217V17.9348C14.1304 17.036 13.3987 16.3043 12.5 16.3043C11.6012 16.3043 10.8696 17.036 10.8696 17.9348V19.0217C10.8696 20.5201 9.65049 21.7391 8.15217 21.7391C6.65386 21.7391 5.43478 20.5201 5.43478 19.0217V16.2494C4.19633 15.9973 3.26087 14.8995 3.26087 13.587V8.15217C3.26087 5.45549 5.45549 3.26087 8.15217 3.26087C10.0429 3.26087 11.6859 4.33906 12.5 5.91245C13.3141 4.33906 14.9571 3.26087 16.8478 3.26087ZM20.6522 13.587V8.15217C20.6522 6.0544 18.9456 4.34783 16.8478 4.34783C14.7501 4.34783 13.0435 6.0544 13.0435 8.15217C13.0435 8.45207 12.7999 8.69565 12.5 8.69565C12.2001 8.69565 11.9565 8.45207 11.9565 8.15217C11.9565 6.0544 10.2499 4.34783 8.15217 4.34783C6.0544 4.34783 4.34783 6.0544 4.34783 8.15217V13.587C4.34783 14.4857 5.07948 15.2174 5.97826 15.2174C6.27815 15.2174 6.52174 15.4602 6.52174 15.7609V19.0217C6.52174 19.9205 7.25342 20.6522 8.15217 20.6522C9.05092 20.6522 9.78261 19.9205 9.78261 19.0217V17.9348C9.78261 16.4365 11.0017 15.2174 12.5 15.2174C13.9983 15.2174 15.2174 16.4365 15.2174 17.9348V19.0217C15.2174 19.9205 15.9491 20.6522 16.8478 20.6522C17.7466 20.6522 18.4783 19.9205 18.4783 19.0217V15.7609C18.4783 15.4602 18.7218 15.2174 19.0217 15.2174C19.9205 15.2174 20.6522 14.4857 20.6522 13.587ZM14.9223 10.3914C15.1858 10.5283 15.293 10.8467 15.1603 11.1123C15.1314 11.1689 14.4441 12.5 12.5 12.5C10.5559 12.5 9.86864 11.1689 9.84022 11.1132C9.70592 10.8446 9.81473 10.5179 10.0833 10.3837C10.35 10.2499 10.6734 10.3571 10.8093 10.6207C10.8337 10.6658 11.262 11.413 12.5 11.413C13.7489 11.413 14.174 10.6517 14.1912 10.6196C14.3327 10.3582 14.6598 10.2555 14.9223 10.3914ZM19.0217 1.08696C18.7216 1.08696 18.4783 0.84363 18.4783 0.543478C18.4783 0.243323 18.7216 0 19.0217 0H22.2826C23.7834 0 25 1.21662 25 2.71739V5.97826C25 6.27842 24.7567 6.52174 24.4565 6.52174C24.1564 6.52174 23.913 6.27842 23.913 5.97826V2.71739C23.913 1.81693 23.1831 1.08696 22.2826 1.08696H19.0217ZM19.0217 23.913H22.2826C23.1831 23.913 23.913 23.1831 23.913 22.2826V19.0217C23.913 18.7216 24.1564 18.4783 24.4565 18.4783C24.7567 18.4783 25 18.7216 25 19.0217V22.2826C25 23.7834 23.7834 25 22.2826 25H19.0217C18.7216 25 18.4783 24.7567 18.4783 24.4565C18.4783 24.1564 18.7216 23.913 19.0217 23.913ZM5.97826 1.08696H2.71739C1.81693 1.08696 1.08696 1.81693 1.08696 2.71739V5.97826C1.08696 6.27842 0.84363 6.52174 0.543478 6.52174C0.243323 6.52174 0 6.27842 0 5.97826V2.71739C0 1.21662 1.21662 0 2.71739 0H5.97826C6.27842 0 6.52174 0.243323 6.52174 0.543478C6.52174 0.84363 6.27842 1.08696 5.97826 1.08696ZM5.97826 23.913C6.27842 23.913 6.52174 24.1564 6.52174 24.4565C6.52174 24.7567 6.27842 25 5.97826 25H2.71739C1.21662 25 0 23.7834 0 22.2826V19.0217C0 18.7216 0.243323 18.4783 0.543478 18.4783C0.84363 18.4783 1.08696 18.7216 1.08696 19.0217V22.2826C1.08696 23.1831 1.81693 23.913 2.71739 23.913H5.97826Z" fill="#06BA98"/>
</svg>
