<svg width="25" height="25" viewBox="0 0 25 25" fill="none" xmlns="http://www.w3.org/2000/svg">
<path fill-rule="evenodd" clip-rule="evenodd" d="M12.5 25C19.4045 25 25 19.4045 25 12.5C25 5.5962 19.4041 0 12.5 0C5.59728 0 0 5.59696 0 12.5C0 19.4037 5.59696 25 12.5 25ZM23.913 12.5C23.913 6.19652 18.8038 1.08696 12.5 1.08696C6.19761 1.08696 1.08696 6.19728 1.08696 12.5C1.08696 18.8034 6.19723 23.913 12.5 23.913C18.8042 23.913 23.913 18.8042 23.913 12.5ZM11.9565 17.3229V12.9984C10.4141 12.7398 9.23913 11.3987 9.23913 9.78261C9.23913 8.16723 10.4143 6.82565 11.9565 6.56685V5.43478C11.9565 5.13462 12.1998 4.8913 12.5 4.8913C12.8002 4.8913 13.0435 5.13462 13.0435 5.43478V6.56685C14.5857 6.82565 15.7609 8.16723 15.7609 9.78261C15.7609 10.0828 15.5176 10.3261 15.2174 10.3261C14.9172 10.3261 14.6739 10.0828 14.6739 9.78261C14.6739 8.76995 13.981 7.91864 13.0435 7.67723V12.0016C14.5857 12.2604 15.7609 13.602 15.7609 15.2174C15.7609 16.8335 14.5859 18.1746 13.0435 18.4332V19.5652C13.0435 19.8654 12.8002 20.1087 12.5 20.1087C12.1998 20.1087 11.9565 19.8654 11.9565 19.5652V18.4332C10.4141 18.1746 9.23913 16.8335 9.23913 15.2174C9.23913 14.9172 9.48245 14.6739 9.78261 14.6739C10.0828 14.6739 10.3261 14.9172 10.3261 15.2174C10.3261 16.2307 11.0188 17.0816 11.9565 17.3229ZM13.0435 17.3229C13.9812 17.0816 14.6739 16.2307 14.6739 15.2174C14.6739 14.2047 13.981 13.3534 13.0435 13.112V17.3229ZM10.3261 9.78261C10.3261 8.76995 11.019 7.91864 11.9565 7.67723V11.8881C11.0188 11.6468 10.3261 10.7959 10.3261 9.78261Z" fill="#06BA98"/>
</svg>
