<svg width="21" height="25" viewBox="0 0 21 25" fill="none" xmlns="http://www.w3.org/2000/svg">
<path fill-rule="evenodd" clip-rule="evenodd" d="M19.3951 0H1.0775C0.482415 0 0 0.482415 0 1.0775V14.5463C0 20.1997 4.58295 24.7826 10.2363 24.7826C15.8896 24.7826 20.4726 20.1997 20.4726 14.5463V1.0775C20.4726 0.482415 19.9902 0 19.3951 0ZM1.0775 1.0775V14.5463C1.0775 19.6046 5.17806 23.7051 10.2363 23.7051C15.2945 23.7051 19.3951 19.6046 19.3951 14.5463V1.0775H1.0775ZM15.795 7.14865C16.0125 6.94565 16.3534 6.95739 16.5565 7.17494C16.7595 7.39244 16.7477 7.73336 16.5302 7.93642L8.44888 15.4789C8.23666 15.677 7.9056 15.6713 7.70033 15.466L5.00657 12.7723C4.79619 12.5619 4.79619 12.2207 5.00657 12.0104C5.21696 11.8 5.55809 11.8 5.76848 12.0104L8.09422 14.336L15.795 7.14865Z" fill="#06BA98"/>
</svg>
