<svg width="22" height="25" viewBox="0 0 22 25" fill="none" xmlns="http://www.w3.org/2000/svg">
<path d="M11.5504 14.2852L11.5503 14.2853C11.5191 14.361 11.4733 14.4323 11.4127 14.4947L11.4055 14.502L9.37147 16.542C9.37146 16.542 9.37146 16.542 9.37145 16.542C9.24189 16.6719 9.07239 16.7367 8.90262 16.7367C8.73284 16.7367 8.56336 16.6719 8.4339 16.542L8.43388 16.5419C8.17479 16.2821 8.17479 15.8607 8.43388 15.6009L10.2452 13.7842L10.2744 13.755V13.7136V6.88776C10.2744 6.52006 10.5716 6.22245 10.9375 6.22245C11.3034 6.22245 11.6006 6.52006 11.6006 6.88776V14.0293L11.6005 14.0402C11.6005 14.0403 11.6005 14.0404 11.6005 14.0405C11.5992 14.127 11.5814 14.21 11.5504 14.2852ZM5.35597 23.5694H5.71847L5.40724 23.3835C4.63931 22.925 3.92303 22.3671 3.27433 21.7165C1.22724 19.6635 0.1 16.9342 0.1 14.0306C0.1 11.127 1.22724 8.39775 3.27433 6.34469C3.98953 5.6274 4.78681 5.02288 5.64498 4.5398L5.69593 4.51112V4.45265V2.29592C5.69593 1.0849 6.67839 0.1 7.88517 0.1H13.9898C15.1966 0.1 16.1791 1.0849 16.1791 2.29592V4.45265V4.51112L16.23 4.53979C17.0881 5.02288 17.8855 5.6274 18.6007 6.34469C20.6478 8.39775 21.775 11.127 21.775 14.0306C21.775 16.9342 20.6478 19.6635 18.6007 21.7165C17.952 22.3671 17.2357 22.925 16.4678 23.3835L16.1565 23.5694H16.519H19.077C19.443 23.5694 19.7401 23.867 19.7401 24.2347C19.7401 24.6024 19.443 24.9 19.077 24.9H2.79797C2.43204 24.9 2.13488 24.6024 2.13488 24.2347C2.13488 23.867 2.43204 23.5694 2.79797 23.5694H5.35597ZM7.02209 3.74403V3.88799L7.157 3.83774C8.35027 3.3933 9.62607 3.16122 10.9375 3.16122C12.2489 3.16122 13.5247 3.3933 14.718 3.83774L14.8529 3.88799V3.74403V2.29592C14.8529 1.81897 14.4661 1.43061 13.9898 1.43061H7.88517C7.40891 1.43061 7.02209 1.81897 7.02209 2.29592V3.74403ZM11.6006 23.4387V23.5471L11.7086 23.5383C16.3399 23.1639 20.0445 19.4482 20.4179 14.8039L20.4266 14.6959H20.3182H18.4577C18.0918 14.6959 17.7946 14.3983 17.7946 14.0306C17.7946 13.6629 18.0918 13.3653 18.4577 13.3653H20.3182H20.4266L20.4179 13.2573C20.024 8.35803 15.9229 4.49184 10.9375 4.49184C5.95212 4.49184 1.85096 8.35803 1.45711 13.2573L1.44843 13.3653H1.55679H3.41728C3.7832 13.3653 4.08036 13.6629 4.08036 14.0306C4.08036 14.3983 3.7832 14.6959 3.41728 14.6959H1.55679H1.44843L1.45711 14.8039C1.83046 19.4482 5.53506 23.1639 10.1664 23.5383L10.2744 23.5471V23.4387V21.5728C10.2744 21.2051 10.5716 20.9074 10.9375 20.9074C11.3034 20.9074 11.6006 21.2051 11.6006 21.5728V23.4387Z" fill="#00BA97" stroke="#F9F9F9" stroke-width="0.2"/>
</svg>
