<svg width="20" height="25" viewBox="0 0 20 25" fill="none" xmlns="http://www.w3.org/2000/svg">
<path d="M13.1676 4.31485C12.6957 4.31288 12.2324 4.44505 11.8289 4.69679C11.4255 4.94852 11.0975 5.31002 10.8812 5.74138C10.7931 5.91741 10.6595 6.06508 10.4952 6.16817C10.3308 6.27126 10.142 6.3258 9.94951 6.3258C9.75699 6.3258 9.5682 6.27126 9.40385 6.16817C9.23949 6.06508 9.10593 5.91741 9.01781 5.74138C8.74949 5.22737 8.32282 4.81953 7.80475 4.58189C7.28668 4.34424 6.70655 4.29024 6.15542 4.42836C5.60428 4.56648 5.11334 4.88889 4.75964 5.34501C4.40594 5.80112 4.20952 6.3651 4.2012 6.94844V12.149C4.20187 12.3747 4.27796 12.5932 4.41672 12.7681C4.55548 12.9429 4.74847 13.0633 4.96332 13.1092C5.20034 13.1589 5.41332 13.2915 5.56612 13.4843C5.71893 13.6772 5.80214 13.9185 5.80165 14.1673V16.2718C5.82296 16.5165 5.93254 16.7442 6.10885 16.91C6.28515 17.0758 6.5154 17.1678 6.75431 17.1678C6.99321 17.1678 7.22347 17.0758 7.39977 16.91C7.57607 16.7442 7.68566 16.5165 7.70696 16.2718V15.441C7.68912 15.126 7.73404 14.8106 7.83896 14.5141C7.94389 14.2177 8.1066 13.9464 8.31712 13.7169C8.52764 13.4874 8.78153 13.3045 9.06322 13.1796C9.34491 13.0546 9.64845 12.9902 9.95522 12.9902C10.262 12.9902 10.5655 13.0546 10.8472 13.1796C11.1289 13.3045 11.3828 13.4874 11.5933 13.7169C11.8038 13.9464 11.9666 14.2177 12.0715 14.5141C12.1764 14.8106 12.2213 15.126 12.2035 15.441V16.2679C12.2248 16.5126 12.3344 16.7403 12.5107 16.9061C12.687 17.0719 12.9172 17.1639 13.1561 17.1639C13.395 17.1639 13.6253 17.0719 13.8016 16.9061C13.9779 16.7403 14.0875 16.5126 14.1088 16.2679V14.1673C14.1083 13.9185 14.1915 13.6772 14.3443 13.4843C14.4971 13.2915 14.7101 13.1589 14.9471 13.1092C15.162 13.0633 15.355 12.9429 15.4937 12.7681C15.6325 12.5932 15.7086 12.3747 15.7092 12.149V6.94844C15.7082 6.25097 15.4386 5.5823 14.9595 5.08874C14.4803 4.59518 13.8305 4.31693 13.1523 4.31485H13.1676ZM9.96284 5.2515C10.3341 4.51398 10.9351 3.92582 11.6697 3.5811C12.4043 3.23639 13.2302 3.15504 14.0151 3.35008C14.8 3.54512 15.4986 4.00527 15.9992 4.65692C16.4998 5.30857 16.7734 6.11406 16.7762 6.94453V12.1451C16.776 12.6206 16.6163 13.0814 16.324 13.4498C16.0318 13.8182 15.6248 14.0717 15.1719 14.1673V16.2718C15.1719 16.5425 15.1201 16.8106 15.0194 17.0607C14.9186 17.3108 14.771 17.538 14.5849 17.7295C14.3988 17.9209 14.1778 18.0727 13.9346 18.1763C13.6914 18.2799 13.4308 18.3332 13.1676 18.3332C12.9043 18.3332 12.6437 18.2799 12.4005 18.1763C12.1573 18.0727 11.9364 17.9209 11.7503 17.7295C11.5641 17.538 11.4165 17.3108 11.3158 17.0607C11.215 16.8106 11.1632 16.5425 11.1632 16.2718V15.441C11.1264 15.1419 10.9847 14.8668 10.7648 14.6674C10.5448 14.468 10.2617 14.358 9.96856 14.358C9.67538 14.358 9.39227 14.468 9.17233 14.6674C8.95239 14.8668 8.81074 15.1419 8.77393 15.441V16.2679C8.77393 16.8146 8.56276 17.339 8.18686 17.7255C7.81097 18.1121 7.30114 18.3293 6.76955 18.3293C6.23795 18.3293 5.72813 18.1121 5.35224 17.7255C4.97634 17.339 4.76517 16.8146 4.76517 16.2679V14.1673C4.31229 14.0717 3.90536 13.8182 3.61309 13.4498C3.32082 13.0814 3.1611 12.6206 3.1609 12.1451V6.94453C3.16855 6.11815 3.44417 5.31803 3.94406 4.67101C4.44396 4.02398 5.13953 3.56706 5.92054 3.37266C6.70154 3.17827 7.52329 3.25753 8.25554 3.59787C8.98779 3.93821 9.58863 4.52017 9.96284 5.2515V5.2515ZM1.04982 1.07773V14.5553C1.0253 15.7748 1.23767 16.987 1.67448 18.121C2.11129 19.255 2.76376 20.2879 3.59366 21.1592C4.42356 22.0306 5.4142 22.7228 6.50755 23.1954C7.60089 23.668 8.77495 23.9114 9.96094 23.9114C11.1469 23.9114 12.321 23.668 13.4143 23.1954C14.5077 22.7228 15.4983 22.0306 16.3282 21.1592C17.1581 20.2879 17.8106 19.255 18.2474 18.121C18.6842 16.987 18.8966 15.7748 18.8721 14.5553V1.07773H1.04982ZM1.04982 0H18.8721C19.15 0 19.4165 0.113547 19.613 0.315661C19.8096 0.517775 19.92 0.791901 19.92 1.07773V14.5553C19.9459 15.9172 19.7074 17.2707 19.2186 18.5367C18.7297 19.8027 18.0003 20.9557 17.0729 21.9283C16.1456 22.9009 15.0389 23.6735 13.8178 24.2009C12.5966 24.7283 11.2854 25 9.96094 25C8.63645 25 7.32527 24.7283 6.1041 24.2009C4.88293 23.6735 3.77629 22.9009 2.84894 21.9283C1.9216 20.9557 1.19216 19.8027 0.703304 18.5367C0.21445 17.2707 -0.0239989 15.9172 0.00190545 14.5553V1.07773C0.00190545 0.936204 0.0290093 0.79606 0.0816721 0.665303C0.134335 0.534546 0.211523 0.415738 0.308831 0.315661C0.40614 0.215584 0.521662 0.136199 0.648801 0.0820373C0.77594 0.0278761 0.912209 0 1.04982 0Z" fill="#00BA97"/>
</svg>
