<svg width="25" height="25" viewBox="0 0 25 25" fill="none" xmlns="http://www.w3.org/2000/svg">
<path d="M16.1018 17.3044C16.4335 17.6361 16.9713 17.6361 17.3029 17.3044C17.6346 16.9727 17.6346 16.435 17.3029 16.1033L13.6996 12.5L17.3029 8.89666C17.6346 8.56498 17.6346 8.02723 17.3029 7.69555C16.9713 7.36388 16.4335 7.36388 16.1018 7.69555L12.4985 11.2989L8.89518 7.69553C8.5635 7.36386 8.02575 7.36386 7.69407 7.69553C7.36239 8.02721 7.36239 8.56496 7.69407 8.89664L11.2974 12.5L7.69407 16.1033C7.36239 16.435 7.36239 16.9727 7.69407 17.3044C8.02575 17.6361 8.5635 17.6361 8.89518 17.3044L12.4985 13.7011L16.1018 17.3044Z" fill="#00BA97" stroke="#F9F9F9" stroke-width="0.5"/>
<path d="M23.9136 12.5C23.9136 10.2426 23.2442 8.03592 21.99 6.15897C20.7359 4.28202 18.9533 2.81911 16.8678 1.95525C14.7822 1.09138 12.4873 0.865355 10.2733 1.30575C8.05931 1.74614 6.02562 2.83318 4.4294 4.42939C2.83319 6.02561 1.74615 8.05931 1.30575 10.2733C0.865356 12.4873 1.09139 14.7822 1.95525 16.8678C2.81912 18.9533 4.28201 20.7359 6.15896 21.99C8.03591 23.2442 10.2426 23.9136 12.5 23.9136C15.5271 23.9136 18.4302 22.7111 20.5706 20.5706C22.7111 18.4301 23.9136 15.5271 23.9136 12.5ZM25 12.5C25 14.9723 24.2669 17.389 22.8934 19.4446C21.5198 21.5002 19.5676 23.1024 17.2835 24.0485C14.9995 24.9946 12.4861 25.2421 10.0614 24.7598C7.63661 24.2775 5.40933 23.087 3.66117 21.3388C1.91301 19.5907 0.722507 17.3634 0.240192 14.9386C-0.242123 12.5139 0.00540962 10.0005 0.951505 7.71646C1.8976 5.43238 3.49976 3.48015 5.55538 2.10663C7.61099 0.733113 10.0277 6.24771e-07 12.5 6.24771e-07C14.1417 -0.00051848 15.7674 0.322449 17.2842 0.950449C18.801 1.57845 20.1792 2.49917 21.34 3.66001C22.5008 4.82084 23.4216 6.19904 24.0496 7.71584C24.6776 9.23265 25.0005 10.8583 25 12.5Z" fill="#00BA97"/>
</svg>
