<svg width="51" height="64" viewBox="0 0 51 64" fill="none" xmlns="http://www.w3.org/2000/svg">
<path d="M33.709 11.046C32.5009 11.041 31.315 11.3793 30.2821 12.0238C29.2492 12.6682 28.4096 13.5937 27.8559 14.6979C27.6303 15.1486 27.2884 15.5266 26.8676 15.7905C26.4469 16.0544 25.9636 16.1941 25.4707 16.1941C24.9779 16.1941 24.4946 16.0544 24.0739 15.7905C23.6531 15.5266 23.3112 15.1486 23.0856 14.6979C22.3987 13.3821 21.3064 12.338 19.9802 11.7296C18.6539 11.1213 17.1688 10.983 15.7579 11.3366C14.347 11.6902 13.0901 12.5156 12.1847 13.6832C11.2792 14.8509 10.7764 16.2947 10.7551 17.788V31.1014C10.7568 31.6792 10.9516 32.2387 11.3068 32.6862C11.662 33.1338 12.1561 33.4421 12.7061 33.5595C13.3129 33.6868 13.8581 34.0262 14.2493 34.5199C14.6404 35.0137 14.8535 35.6314 14.8522 36.2683V41.6559C14.9068 42.2824 15.1873 42.8652 15.6386 43.2897C16.09 43.7141 16.6794 43.9495 17.291 43.9495C17.9026 43.9495 18.4921 43.7141 18.9434 43.2897C19.3947 42.8652 19.6753 42.2824 19.7298 41.6559V39.5289C19.6841 38.7226 19.7991 37.9152 20.0677 37.1562C20.3363 36.3972 20.7529 35.7027 21.2918 35.1152C21.8308 34.5277 22.4807 34.0596 23.2018 33.7397C23.923 33.4198 24.7 33.2548 25.4854 33.2548C26.2707 33.2548 27.0478 33.4198 27.7689 33.7397C28.49 34.0596 29.14 34.5277 29.6789 35.1152C30.2178 35.7027 30.6344 36.3972 30.903 37.1562C31.1716 37.9152 31.2866 38.7226 31.2409 39.5289V41.6458C31.2955 42.2723 31.576 42.8551 32.0273 43.2796C32.4787 43.7041 33.0681 43.9395 33.6797 43.9395C34.2913 43.9395 34.8808 43.7041 35.3321 43.2796C35.7834 42.8551 36.064 42.2723 36.1185 41.6458V36.2683C36.1172 35.6314 36.3303 35.0137 36.7215 34.5199C37.1126 34.0262 37.6579 33.6868 38.2646 33.5595C38.8146 33.4421 39.3087 33.1338 39.6639 32.6862C40.0192 32.2387 40.214 31.6792 40.2157 31.1014V17.788C40.2131 16.0025 39.5229 14.2907 38.2962 13.0272C37.0695 11.7637 35.4061 11.0513 33.6699 11.046H33.709ZM25.5049 13.4438C26.4552 11.5558 27.9937 10.0501 29.8744 9.16762C31.7551 8.28515 33.8693 8.07691 35.8786 8.57621C37.888 9.07551 39.6765 10.2535 40.958 11.9217C42.2394 13.5899 42.9398 15.652 42.9471 17.778V31.0914C42.9466 32.3086 42.5377 33.4884 41.7895 34.4316C41.0413 35.3747 39.9996 36.0235 38.8402 36.2683V41.6559C38.8402 42.3489 38.7075 43.0351 38.4496 43.6754C38.1917 44.3156 37.8138 44.8974 37.3373 45.3874C36.8608 45.8775 36.2952 46.2662 35.6726 46.5314C35.0501 46.7966 34.3828 46.9331 33.709 46.9331C33.0351 46.9331 32.3679 46.7966 31.7453 46.5314C31.1228 46.2662 30.5571 45.8775 30.0807 45.3874C29.6042 44.8974 29.2262 44.3156 28.9683 43.6754C28.7105 43.0351 28.5778 42.3489 28.5778 41.6559V39.5289C28.4835 38.7631 28.1209 38.059 27.5579 37.5486C26.9948 37.0382 26.2701 36.7566 25.5195 36.7566C24.769 36.7566 24.0442 37.0382 23.4812 37.5486C22.9181 38.059 22.5555 38.7631 22.4613 39.5289V41.6458C22.4613 43.0454 21.9207 44.3877 20.9584 45.3774C19.9961 46.3671 18.6909 46.923 17.33 46.923C15.9692 46.923 14.664 46.3671 13.7017 45.3774C12.7394 44.3877 12.1988 43.0454 12.1988 41.6458V36.2683C11.0395 36.0235 9.99773 35.3747 9.24952 34.4316C8.5013 33.4884 8.09242 32.3086 8.0919 31.0914V17.778C8.11148 15.6625 8.81706 13.6142 10.0968 11.9578C11.3765 10.3014 13.1572 9.13167 15.1566 8.63402C17.1559 8.13637 19.2596 8.33926 21.1342 9.21054C23.0087 10.0818 24.5469 11.5716 25.5049 13.4438ZM2.68755 2.759V37.2615C2.62477 40.3834 3.16842 43.4867 4.28666 46.3897C5.40489 49.2927 7.07522 51.937 9.19977 54.1676C11.3243 56.3983 13.8604 58.1704 16.6593 59.3803C19.4583 60.5901 22.4639 61.2133 25.5 61.2133C28.5361 61.2133 31.5417 60.5901 34.3407 59.3803C37.1396 58.1704 39.6757 56.3983 41.8002 54.1676C43.9248 51.937 45.5951 49.2927 46.7133 46.3897C47.8316 43.4867 48.3752 40.3834 48.3125 37.2615V2.759H2.68755ZM2.68755 0H48.3125C49.0239 0 49.7063 0.290679 50.2094 0.808092C50.7125 1.3255 50.9951 2.02727 50.9951 2.759V37.2615C51.0614 40.748 50.451 44.2131 49.1995 47.454C47.9481 50.695 46.0807 53.6467 43.7067 56.1365C41.3327 58.6263 38.4997 60.6041 35.3735 61.9543C32.2473 63.3046 28.8907 64 25.5 64C22.1093 64 18.7527 63.3046 15.6265 61.9543C12.5003 60.6041 9.66731 58.6263 7.2933 56.1365C4.91929 53.6467 3.05192 50.695 1.80046 47.454C0.548992 44.2131 -0.0614373 40.748 0.00487796 37.2615V2.759C0.00487796 2.39668 0.0742638 2.03791 0.209081 1.70318C0.343897 1.36844 0.541499 1.06429 0.790608 0.808092C1.03972 0.551895 1.33545 0.348668 1.66093 0.210016C1.98641 0.0713629 2.33525 0 2.68755 0Z" fill="#00BA97"/>
</svg>
