<svg width="64" height="64" viewBox="0 0 64 64" fill="none" xmlns="http://www.w3.org/2000/svg">
<path d="M30.6043 44.3489V33.2238C28.6633 32.8893 26.9029 31.8797 25.634 30.3734C24.365 28.867 23.6691 26.9607 23.6691 24.9911C23.6691 23.0216 24.365 21.1153 25.634 19.6089C26.9029 18.1026 28.6633 17.093 30.6043 16.7585V13.9166C30.5879 13.724 30.6116 13.5301 30.674 13.3471C30.7364 13.1642 30.8362 12.9962 30.9669 12.8538C31.0977 12.7115 31.2566 12.5978 31.4335 12.5201C31.6105 12.4423 31.8017 12.4022 31.9949 12.4022C32.1882 12.4022 32.3794 12.4423 32.5564 12.5201C32.7333 12.5978 32.8922 12.7115 33.023 12.8538C33.1537 12.9962 33.2534 13.1642 33.3159 13.3471C33.3783 13.5301 33.402 13.724 33.3856 13.9166V16.8091C35.3308 17.1387 37.0966 18.1462 38.3702 19.653C39.6437 21.1598 40.3429 23.0688 40.3439 25.0417C40.3603 25.2343 40.3366 25.4282 40.2742 25.6111C40.2117 25.7941 40.112 25.9621 39.9812 26.1044C39.8505 26.2468 39.6916 26.3605 39.5147 26.4382C39.3377 26.516 39.1465 26.5561 38.9532 26.5561C38.7599 26.5561 38.5687 26.516 38.3918 26.4382C38.2148 26.3605 38.0559 26.2468 37.9252 26.1044C37.7945 25.9621 37.6947 25.7941 37.6323 25.6111C37.5699 25.4282 37.5462 25.2343 37.5626 25.0417C37.5633 23.807 37.1533 22.6072 36.397 21.6312C35.6408 20.6553 34.5814 19.9586 33.3856 19.6511V30.7762C35.3266 31.1107 37.087 32.1203 38.3559 33.6266C39.6249 35.133 40.3208 37.0392 40.3208 39.0088C40.3208 40.9784 39.6249 42.8847 38.3559 44.391C37.087 45.8974 35.3266 46.9069 33.3856 47.2415V50.1441C33.3559 50.4925 33.1965 50.817 32.939 51.0534C32.6814 51.2899 32.3446 51.4211 31.9949 51.4211C31.6453 51.4211 31.3085 51.2899 31.0509 51.0534C30.7934 50.817 30.634 50.4925 30.6043 50.1441V47.1909C28.6601 46.861 26.8955 45.8532 25.6236 44.3462C24.3517 42.8391 23.6547 40.9303 23.6561 38.9583C23.6859 38.6099 23.8452 38.2854 24.1028 38.049C24.3603 37.8125 24.6972 37.6813 25.0468 37.6813C25.3964 37.6813 25.7333 37.8125 25.9908 38.049C26.2483 38.2854 26.4077 38.6099 26.4374 38.9583C26.4361 40.1916 26.8447 41.3904 27.599 42.3662C28.3532 43.342 29.4104 44.0395 30.6043 44.3489ZM33.3856 44.3489C34.5838 44.0439 35.6463 43.3483 36.4051 42.3721C37.1639 41.3959 37.5759 40.1947 37.5759 38.9583C37.5759 37.7218 37.1639 36.5206 36.4051 35.5444C35.6463 34.5682 34.5838 33.8727 33.3856 33.5676V44.3489ZM30.6043 19.6511C29.4126 19.9634 28.3579 20.6618 27.6053 21.6372C26.8526 22.6125 26.4443 23.8097 26.4443 25.0417C26.4443 26.2737 26.8526 27.4709 27.6053 28.4463C28.3579 29.4216 29.4126 30.12 30.6043 30.4324V19.6511ZM61.2187 32C61.2187 26.2211 59.5051 20.5719 56.2945 15.767C53.0839 10.962 48.5205 7.21693 43.1815 5.00543C37.8425 2.79394 31.9676 2.21531 26.2997 3.34272C20.6318 4.47013 15.4256 7.25294 11.3393 11.3393C7.25296 15.4256 4.47013 20.6318 3.34272 26.2997C2.21531 31.9676 2.79395 37.8425 5.00544 43.1815C7.21693 48.5205 10.962 53.0839 15.7669 56.2945C20.5719 59.5051 26.2211 61.2187 32 61.2187C39.7493 61.2187 47.1812 58.1403 52.6608 52.6607C58.1403 47.1812 61.2187 39.7493 61.2187 32V32ZM64 32C64 38.329 62.1232 44.5159 58.607 49.7782C55.0908 55.0406 50.0931 59.1421 44.2459 61.5641C38.3986 63.9861 31.9645 64.6198 25.7571 63.3851C19.5497 62.1504 13.8479 59.1027 9.37259 54.6274C4.89731 50.1521 1.84962 44.4503 0.614891 38.2429C-0.619836 32.0355 0.0138487 25.6014 2.43585 19.7541C4.85786 13.9069 8.95939 8.90918 14.2218 5.39297C19.4841 1.87677 25.671 1.59942e-06 32 1.59942e-06C36.2027 -0.00132731 40.3644 0.82547 44.2474 2.43315C48.1305 4.04083 51.6587 6.39788 54.6304 9.36962C57.6021 12.3414 59.9592 15.8695 61.5669 19.7526C63.1745 23.6356 64.0013 27.7973 64 32Z" fill="#00BA97"/>
</svg>
