<svg width="53" height="64" viewBox="0 0 53 64" fill="none" xmlns="http://www.w3.org/2000/svg">
<path d="M40.33 18.4576C40.4563 18.3095 40.612 18.1899 40.7869 18.1065C40.9619 18.0232 41.1522 17.9779 41.3455 17.9737C41.5389 17.9696 41.7309 18.0065 41.9092 18.0822C42.0875 18.1579 42.2481 18.2707 42.3806 18.4132C42.513 18.5557 42.6144 18.7248 42.6781 18.9095C42.7418 19.0941 42.7664 19.2903 42.7503 19.4852C42.7342 19.6801 42.6778 19.8694 42.5847 20.0409C42.4916 20.2123 42.364 20.3621 42.21 20.4804L21.57 39.9697C21.3143 40.2211 20.9717 40.3618 20.615 40.3618C20.2583 40.3618 19.9157 40.2211 19.66 39.9697L12.79 33.0114C12.5248 32.7512 12.3726 32.3951 12.367 32.0215C12.3614 31.6478 12.5027 31.2872 12.76 31.019C13.0173 30.7507 13.3693 30.5968 13.7388 30.5911C14.1082 30.5855 14.4648 30.7284 14.73 30.9886L20.67 36.9962L40.34 18.4576H40.33ZM2.75 2.78129V37.5626C2.87653 43.7505 5.39589 49.6419 9.76765 53.9729C14.1394 58.3039 20.0153 60.7296 26.135 60.7296C32.2547 60.7296 38.1306 58.3039 42.5024 53.9729C46.8741 49.6419 49.3935 43.7505 49.52 37.5626V2.78129H2.75ZM2.75 0H49.53C50.2593 0 50.9588 0.293028 51.4745 0.814621C51.9903 1.33621 52.28 2.04365 52.28 2.78129V37.5626C52.28 44.5742 49.526 51.2987 44.6238 56.2567C39.7216 61.2146 33.0728 64 26.14 64C19.2072 64 12.5584 61.2146 7.65623 56.2567C2.75403 51.2987 1.03306e-07 44.5742 0 37.5626L0 2.78129C0 2.04365 0.289731 1.33621 0.805456 0.814621C1.32118 0.293028 2.02065 0 2.75 0Z" fill="#00BA97"/>
</svg>
