<svg width="64" height="64" viewBox="0 0 64 64" fill="none" xmlns="http://www.w3.org/2000/svg">
<path d="M39.3503 2.80063C41.2802 4.49834 42.5624 6.81207 42.9789 9.34838C43.3955 11.8847 42.9207 14.487 41.6353 16.7128H50.0473V2.80063H39.3503ZM24.6294 2.80063H13.9121V16.7128H22.3545C21.0679 14.4881 20.5915 11.8865 21.0062 9.35024C21.4209 6.814 22.7012 4.49965 24.6294 2.80063V2.80063ZM24.6294 19.4932H13.9121V23.6689C14.0238 28.3907 15.978 32.8815 19.357 36.1816C22.736 39.4816 27.2718 41.3291 31.9949 41.3291C36.718 41.3291 41.2538 39.4816 44.6328 36.1816C48.0118 32.8815 49.966 28.3907 50.0777 23.6689V19.4932H39.3503C37.3181 21.2873 34.7007 22.2773 31.9899 22.2773C29.279 22.2773 26.6616 21.2873 24.6294 19.4932V19.4932ZM16.6824 50.0979H19.4629C19.6554 50.0815 19.8492 50.1052 20.0321 50.1676C20.215 50.23 20.3829 50.3297 20.5252 50.4604C20.6675 50.5911 20.7812 50.7499 20.8589 50.9268C20.9366 51.1037 20.9768 51.2949 20.9768 51.4881C20.9768 51.6813 20.9366 51.8724 20.8589 52.0494C20.7812 52.2263 20.6675 52.3851 20.5252 52.5158C20.3829 52.6465 20.215 52.7462 20.0321 52.8086C19.8492 52.871 19.6554 52.8947 19.4629 52.8783H16.6824V55.6587C16.6527 56.0069 16.4934 56.3313 16.236 56.5677C15.9785 56.8041 15.6417 56.9353 15.2922 56.9353C14.9427 56.9353 14.606 56.8041 14.3485 56.5677C14.0911 56.3313 13.9318 56.0069 13.902 55.6587V52.8783H11.1216C10.7734 52.8486 10.449 52.6892 10.2126 52.4318C9.9762 52.1744 9.84503 51.8376 9.84503 51.4881C9.84503 51.1386 9.9762 50.8018 10.2126 50.5444C10.449 50.287 10.7734 50.1276 11.1216 50.0979H13.902V47.3175C13.8856 47.1249 13.9093 46.9311 13.9717 46.7482C14.0341 46.5654 14.1339 46.3974 14.2646 46.2551C14.3952 46.1128 14.5541 45.9991 14.731 45.9214C14.9079 45.8437 15.099 45.8036 15.2922 45.8036C15.4855 45.8036 15.6766 45.8437 15.8535 45.9214C16.0304 45.9991 16.1892 46.1128 16.3199 46.2551C16.4506 46.3974 16.5503 46.5654 16.6127 46.7482C16.6751 46.9311 16.6989 47.1249 16.6824 47.3175V50.0979ZM30.6047 61.2195V44.5371H33.3851V61.2195H61.169V51.483C61.169 48.9008 60.1432 46.4242 58.3172 44.5983C56.4913 42.7724 54.0148 41.7466 51.4325 41.7466H42.333C39.1647 43.5687 35.5739 44.5276 31.9191 44.5276C28.2643 44.5276 24.6734 43.5687 21.5052 41.7466H12.4057C9.8234 41.7466 7.34688 42.7724 5.52093 44.5983C3.69499 46.4242 2.66919 48.9008 2.66919 51.483V61.2195H30.6047ZM46.1649 38.9763H51.4527C54.7724 38.9763 57.9561 40.295 60.3035 42.6424C62.6509 44.9897 63.9696 48.1735 63.9696 51.4931V61.2296C63.9683 61.5956 63.8947 61.9577 63.7531 62.2952C63.6115 62.6327 63.4047 62.9389 63.1445 63.1963C62.8843 63.4537 62.5759 63.6572 62.2369 63.7951C61.8978 63.933 61.5349 64.0026 61.169 63.9999H2.78041C2.043 63.9999 1.33578 63.707 0.814357 63.1856C0.292929 62.6641 0 61.9569 0 61.2195V51.483C0 48.1633 1.31874 44.9796 3.66612 42.6323C6.01349 40.2849 9.19721 38.9661 12.5169 38.9661H17.8047C15.6936 37.017 14.0096 34.6512 12.8593 32.0182C11.709 29.3852 11.1173 26.5422 11.1216 23.6689V2.80063C11.119 2.4338 11.1889 2.07007 11.3274 1.7304C11.466 1.39073 11.6704 1.08183 11.9288 0.821498C12.1873 0.561168 12.4947 0.354555 12.8333 0.213563C13.172 0.0725722 13.5352 -9.70061e-06 13.902 9.72435e-10H50.0473C50.4125 9.72436e-10 50.774 0.0719176 51.1114 0.211646C51.4487 0.351375 51.7552 0.556178 52.0134 0.814362C52.2716 1.07255 52.4764 1.37906 52.6161 1.71639C52.7558 2.05373 52.8277 2.41528 52.8277 2.78041V23.6689C52.8315 26.5411 52.2406 29.3831 51.0922 32.0158C49.9437 34.6486 48.2626 37.015 46.1548 38.9661L46.1649 38.9763ZM40.3412 11.1216C40.3432 9.46946 39.8551 7.85382 38.9386 6.47913C38.0222 5.10443 36.7186 4.03244 35.1928 3.3988C33.667 2.76516 31.9875 2.59833 30.3668 2.91942C28.7461 3.24052 27.2571 4.03511 26.0881 5.20266C24.9192 6.37021 24.1228 7.85826 23.7997 9.47853C23.4767 11.0988 23.6415 12.7785 24.2733 14.3051C24.9051 15.8317 25.9755 17.1366 27.3491 18.0547C28.7226 18.9728 30.3377 19.4629 31.9899 19.4629C33.0861 19.4642 34.1718 19.2494 35.185 18.8308C36.1982 18.4122 37.1189 17.798 37.8945 17.0233C38.6702 16.2487 39.2855 15.3287 39.7053 14.316C40.1251 13.3034 40.3412 12.2179 40.3412 11.1216V11.1216Z" fill="#00BA97"/>
</svg>
