<svg width="63" height="64" viewBox="0 0 63 64" fill="none" xmlns="http://www.w3.org/2000/svg">
<path d="M59.7376 32C59.7376 26.2211 58.0654 20.572 54.9325 15.767C51.7996 10.962 47.3466 7.21694 42.1368 5.00544C36.9269 2.79395 31.1942 2.21532 25.6634 3.34273C20.1327 4.47014 15.0524 7.25295 11.0649 11.3393C7.07747 15.4256 4.36201 20.6318 3.26187 26.2997C2.16174 31.9676 2.72634 37.8425 4.88433 43.1815C7.04232 48.5205 10.6968 53.0839 15.3855 56.2945C20.0742 59.5051 25.5867 61.2187 31.2258 61.2187C38.7876 61.2187 46.0397 58.1403 51.3867 52.6607C56.7337 47.1812 59.7376 39.7493 59.7376 32V32ZM62.4516 32C62.4516 38.329 60.6202 44.5159 57.1891 49.7782C53.758 55.0406 48.8812 59.1421 43.1754 61.5641C37.4696 63.9861 31.1912 64.6198 25.1339 63.3851C19.0767 62.1504 13.5128 59.1027 9.14583 54.6274C4.77882 50.1521 1.80486 44.4503 0.600007 38.2429C-0.604847 32.0355 0.013536 25.6014 2.37694 19.7541C4.74035 13.9069 8.74262 8.90919 13.8777 5.39298C19.0127 1.87678 25.0499 1.43917e-05 31.2258 1.43917e-05C35.3285 -0.00397353 39.3917 0.820861 43.183 2.42735C46.9744 4.03384 50.4195 6.39047 53.3214 9.36247C56.2234 12.3345 58.5252 15.8636 60.0952 19.7479C61.6652 23.6322 62.4726 27.7956 62.4713 32H62.4516ZM29.8145 26.9431C29.7348 27.2343 29.5644 27.4907 29.3291 27.6733C29.0939 27.856 28.8069 27.9547 28.5118 27.9545H21.3962L26.6663 32.4551C26.8826 32.64 27.0377 32.889 27.1102 33.168C27.1826 33.4469 27.1689 33.742 27.0709 34.0126L24.5543 40.8698L30.4757 36.5714C30.7046 36.3989 30.9812 36.3059 31.2653 36.3059C31.5494 36.3059 31.826 36.3989 32.0548 36.5714L37.9763 40.8698L35.4695 34.0126C35.3674 33.7434 35.3506 33.4481 35.4215 33.1686C35.4923 32.889 35.6472 32.6394 35.8643 32.4551L41.1344 27.9545H34.0188C33.7237 27.9547 33.4366 27.856 33.2014 27.6733C32.9662 27.4907 32.7957 27.2343 32.716 26.9431L31.3048 21.8862L29.8935 26.9431H29.8145ZM29.9033 16.4551C29.9825 16.1633 30.1527 15.9062 30.3879 15.7229C30.6232 15.5397 30.9106 15.4405 31.2061 15.4405C31.5016 15.4405 31.7889 15.5397 32.0242 15.7229C32.2595 15.9062 32.4297 16.1633 32.5088 16.4551L34.9464 25.1833H44.8155C45.0951 25.1841 45.3677 25.273 45.5962 25.4379C45.8248 25.6029 45.9983 25.836 46.0931 26.1055C46.188 26.375 46.1996 26.6679 46.1264 26.9444C46.0532 27.2209 45.8988 27.4676 45.684 27.6511L38.2723 33.9722L42.0127 44.177C42.1114 44.456 42.1208 44.76 42.0394 45.0448C41.958 45.3297 41.7902 45.5805 41.5602 45.7609C41.3303 45.9413 41.0502 46.0419 40.7606 46.0481C40.4711 46.0542 40.1871 45.9657 39.9501 45.7952L31.2258 39.4437L22.5114 45.8154C22.2743 45.9859 21.9904 46.0745 21.7009 46.0683C21.4113 46.0621 21.1312 45.9615 20.9013 45.7811C20.6713 45.6007 20.5035 45.3499 20.4221 45.0651C20.3407 44.7802 20.3501 44.4762 20.4488 44.1972L24.1891 33.9924L16.7775 27.6713C16.5627 27.4879 16.4083 27.2411 16.3351 26.9646C16.2619 26.6881 16.2735 26.3952 16.3683 26.1257C16.4632 25.8562 16.6367 25.6232 16.8652 25.4582C17.0938 25.2932 17.3664 25.2043 17.6459 25.2035H27.515L29.9033 16.4551Z" fill="#00BA97"/>
</svg>
