<svg width="215" height="58" viewBox="0 0 215 58" fill="none" xmlns="http://www.w3.org/2000/svg">
<path fill-rule="evenodd" clip-rule="evenodd" d="M23.9653 13.3134H33.5438V24.0874H44.3073L44.2525 33.8728L33.5438 34.0434V44.6619H23.9653L23.8408 33.8728L13.2018 33.7775L13.2267 24.1526L23.9653 24.0874V13.3134ZM5.63455 32.5079C7.23761 44.2002 18.3247 54.4373 32.2046 52.2995C43.9687 50.483 53.846 39.6839 51.8745 25.4824C51.419 22.42 50.3689 19.478 48.7843 16.825C47.1997 14.172 45.1116 11.86 42.6396 10.0213C40.1676 8.18256 37.3601 6.85319 34.3779 6.10925C31.3956 5.36531 28.2971 5.22141 25.2597 5.68577C13.5304 7.44213 3.69295 18.2964 5.63455 32.5079Z" fill="#929292"/>
<path fill-rule="evenodd" clip-rule="evenodd" d="M168.555 32.2218C171.567 31.9759 174.19 31.8956 176.396 32.819C177.571 38.3389 173.787 37.5009 168.52 37.2149L168.555 32.2218ZM168.46 20.9008C170.715 20.5085 173.027 20.6181 175.236 21.222L174.977 25.2064L171.821 25.6028L170.327 25.638L168.46 25.4523V20.9008ZM181.16 28.6489C182.196 26.5212 183.953 24.8802 183.022 20.7151C180.931 11.3864 168.52 13.6897 160.883 13.6897L161.117 44.3005C166.414 44.3005 176.55 45.2038 180.488 42.7951C184.76 40.1455 186.716 31.0827 181.16 28.6489Z" fill="#929292"/>
<path fill-rule="evenodd" clip-rule="evenodd" d="M99.7585 23.9769C99.7585 19.3502 107.605 17.8999 107.605 24.9806V33.0096C107.605 40.0351 99.7585 38.7956 99.7585 34.0133V23.9769ZM92.2908 35.5187C92.8334 42.9155 101.252 47.0605 108.854 43.8388C115.824 40.8681 115.919 31.4942 114.953 22.5016C114.166 15.2002 106.225 10.8193 98.3794 14.1714C91.1059 17.2978 91.6386 26.3054 92.3057 35.5187H92.2908Z" fill="#929292"/>
<path fill-rule="evenodd" clip-rule="evenodd" d="M135.03 24.9805C135.732 22.7574 137.146 20.6398 138.177 18.6526C141.597 12.0436 142.901 13.6846 121.225 13.6846C120.666 15.9925 120.666 18.4021 121.225 20.71H129.31C128.314 23.9166 125.944 27.2035 125.641 30.0589C129.439 30.3198 133.875 30.1542 133.133 34.9867C132.85 36.8284 131.495 37.8471 129.489 37.7467C126.811 37.6212 127.119 36.0706 126.034 34.8863H119.736C120.095 39.8443 122.226 42.4738 125.601 43.9943C132.426 47.0604 141.388 42.6093 140.815 33.1199C140.487 27.7154 138.47 27.1533 135.03 24.9805Z" fill="#929292"/>
<path fill-rule="evenodd" clip-rule="evenodd" d="M199.571 21.0763L195.443 13.6846H187.438C186.791 15.7571 189.653 19.0088 190.594 20.5996C198.396 33.7924 197.211 27.7706 197.216 44.3255L205.057 44.1147C205.057 27.3942 203.807 33.9078 211.932 20.2433C212.993 18.4568 215.372 15.8273 214.954 13.6846H206.884C204.987 16.5499 203.26 20.9408 201.194 23.4901C201.106 23.4114 201.024 23.3258 200.95 23.2341L200.278 22.3961C200.253 22.356 199.62 21.1867 199.571 21.0914V21.0763Z" fill="#929292"/>
<path fill-rule="evenodd" clip-rule="evenodd" d="M71.007 39.0312C71.007 45.8459 70.5341 44.3053 78.7286 44.3003C81.6311 44.3003 84.5385 44.3003 87.5106 44.3003L87.4559 37.7767H83.2092C83.2092 32.6832 83.6324 17.704 82.9603 13.6895L71.4451 13.7547L71.3804 20.0174L75.3084 20.0926L75.4926 37.7817C72.0077 37.7817 71.012 37.3501 71.012 39.0412L71.007 39.0312Z" fill="#929292"/>
<path fill-rule="evenodd" clip-rule="evenodd" d="M24.5587 1.74172C40.7238 -0.852676 53.6131 10.93 55.8036 24.474C58.4621 40.8935 46.9867 53.7701 33.525 56.219C17.2354 59.1847 4.12215 47.2515 1.76235 33.863C-1.21477 16.9719 10.7784 3.94971 24.5587 1.74172ZM25.5544 0.236266C10.5742 2.1783 -1.6927 14.9947 0.194137 32.4077C1.79222 47.1712 15.3834 59.8822 32.2206 57.7696C46.8872 55.9279 59.2138 42.6549 57.3021 25.4827C55.6891 11.0053 42.0581 -1.91151 25.5495 0.236266H25.5544Z" fill="#929292"/>
<path fill-rule="evenodd" clip-rule="evenodd" d="M145.67 42.0424C146.999 45.9164 155.407 45.3945 153.839 39.177C152.649 34.475 143.569 35.9252 145.67 42.0424Z" fill="#929292"/>
</svg>
