<svg width="188" height="55" viewBox="0 0 188 55" fill="none" xmlns="http://www.w3.org/2000/svg">
<path fill-rule="evenodd" clip-rule="evenodd" d="M116.272 26.3284C116.272 21.0427 119.363 16.8141 125.025 16.8141C132.779 16.8141 136.542 26.757 131.38 32.6784C130.11 33.9814 128.481 34.8763 126.701 35.2491C124.92 35.6218 123.069 35.4555 121.384 34.7713C119.809 34.005 118.488 32.8014 117.579 31.3042C116.67 29.807 116.211 28.0796 116.257 26.3284H116.272ZM109.889 26.3284C109.889 38.7427 121.691 44.5713 130.194 39.4356C131.53 38.6213 133.714 36.4927 133.9 35.5927C135.792 50.8641 123.19 51.0213 116.764 47.0641C115.95 46.557 115.886 46.3498 115.079 45.9213L112.095 50.7141C120.056 57.407 133.736 56.1427 138.177 47.707C140.697 42.9284 140.169 36.9284 140.169 30.857C140.169 24.5998 140.262 18.2784 140.169 12.0284H133.743L133.664 16.457C132.831 15.536 131.934 14.6744 130.98 13.8784C123.183 8.12127 109.932 13.4927 109.932 26.3213L109.889 26.3284Z" fill="#929292"/>
<path fill-rule="evenodd" clip-rule="evenodd" d="M31.7503 11.5712C32.1573 11.1641 35.0917 7.24265 35.3202 6.47122C33.8934 5.22441 32.2942 4.18995 30.5722 3.39979C28.6805 2.61118 26.7002 2.05475 24.6747 1.74265C-1.62148 -1.78592 -9.15405 33.2141 13.1652 41.7855C19.484 44.2141 26.7809 43.3784 32.757 40.3569C34.6991 39.3855 35.5558 38.3212 37.2551 37.1927L37.3479 23.0569H30.458L30.4009 34.0569C26.9523 37.2927 14.2933 39.0569 8.79559 29.6927C4.11898 21.7141 8.53856 6.12122 24.6461 8.35694C26.0338 8.54438 27.3861 8.93675 28.6587 9.52122C30.9006 10.6212 30.5936 11.1284 31.7503 11.5498V11.5712Z" fill="#929292"/>
<path fill-rule="evenodd" clip-rule="evenodd" d="M163.988 25.0717C163.502 20.6574 168.272 17.1431 172.656 17.1431C177.882 17.1431 181.809 20.2074 181.324 25.0717H163.988ZM157.434 27.7431C157.434 42.5931 173.962 46.7717 183.53 40.0431C184.351 39.4717 184.958 38.8431 185.757 38.3002C185.272 37.1931 183.173 34.7788 182.009 34.2217C174.519 40.986 164.316 36.8288 163.924 30.2145L187.778 30.136C188.414 24.6502 187.557 20.5074 185.093 16.9788C179.21 8.57167 157.434 8.90738 157.434 27.7431Z" fill="#929292"/>
<path fill-rule="evenodd" clip-rule="evenodd" d="M53.8906 17.7284C55.1415 17.3295 56.4615 17.1945 57.7672 17.3319C59.0729 17.4693 60.3359 17.876 61.4766 18.5264C62.6172 19.1768 63.6106 20.0568 64.394 21.1108C65.1775 22.1647 65.734 23.3698 66.0284 24.6498C69.1342 38.6069 50.3206 42.0141 47.3505 30.2998C45.7368 23.9855 49.0426 19.1569 53.8906 17.7284ZM57.2606 43.1212C61.4653 43.0524 65.4761 41.3397 68.4345 38.3498C77.6735 28.4641 71.6117 11.6069 56.4038 11.6069C54.3371 11.5786 52.2852 11.9598 50.3664 12.7284C48.4476 13.497 46.6998 14.6379 45.2238 16.0854C43.7477 17.5328 42.5726 19.2582 41.7661 21.1621C40.9596 23.0659 40.5377 25.1106 40.5247 27.1784C40.4176 35.5998 46.9506 43.1212 55.8398 43.1212H57.2606Z" fill="#929292"/>
<path fill-rule="evenodd" clip-rule="evenodd" d="M81.5221 26.893C81.4945 24.439 82.4392 22.0738 84.1496 20.3145C86.8271 17.5788 88.6049 17.4073 92.132 17.4073C96.1517 17.4073 99.3647 20.6645 100.357 23.7645C103.092 32.3359 95.8376 39.9145 87.384 36.7288C86.5478 36.3979 85.7675 35.9402 85.0707 35.3716C82.4003 33.4288 81.5007 30.3359 81.5007 26.893H81.5221ZM107.318 27.4645C107.318 18.593 100.6 11.9002 91.5751 11.593C89.4588 11.4951 87.3446 11.8243 85.3582 12.561C83.3718 13.2977 81.554 14.4269 80.013 15.8812C78.472 17.3355 77.2394 19.0853 76.3885 21.0262C75.5377 22.9671 75.0861 25.0595 75.0605 27.1788C75.0605 36.5073 81.9362 43.1288 91.8535 43.1288C100.2 43.1288 107.318 35.9859 107.318 27.4645Z" fill="#929292"/>
<path fill-rule="evenodd" clip-rule="evenodd" d="M146.637 42.6714H152.984V0.0571429L152.806 0L146.537 0.0571429L146.637 42.6714Z" fill="#929292"/>
</svg>
