<svg width="150" height="58" viewBox="0 0 150 58" fill="none" xmlns="http://www.w3.org/2000/svg">
<path fill-rule="evenodd" clip-rule="evenodd" d="M7.93734 16.5309C7.93734 13.1892 8.37214 10.4013 9.9263 8.10219C12.3871 4.48591 15.6203 4.8117 19.3253 4.8117V26.8305H16.254C10.4675 26.8305 7.93734 22.3765 7.93734 16.5309ZM2.04909 14.9857C2.04909 18.9184 2.17861 21.925 4.13519 25.2248C5.46733 27.51 7.114 28.8504 9.34349 30.0558C9.30186 30.5817 1.54491 47.4018 0.555059 49.5427C0.334338 49.993 0.148759 50.4598 0 50.939H6.40168C6.44331 50.4131 7.19726 48.9935 7.40541 48.4723L9.52851 43.632C9.88005 42.7756 10.2177 42.0821 10.5877 41.2211L12.7155 36.4087C13.1179 35.543 14.6906 32.1548 14.8478 31.4707H19.3299V50.9157H24.8343V0.0505091C20.551 0.0505091 14.45 -0.368364 10.8468 1.17216C5.23143 3.56905 2.05834 8.94924 2.05834 14.9857H2.04909Z" fill="#929292"/>
<path fill-rule="evenodd" clip-rule="evenodd" d="M65.0212 19.6219H71.0344V46.2762H61.6909C61.7834 45.8806 62.0008 45.4152 62.1534 44.9451C63.3283 41.408 63.8787 37.7405 64.3413 34.0079L64.7668 28.8883C64.7554 28.2664 64.7863 27.6444 64.8593 27.0267L65.0212 19.58V19.6219ZM59.9008 22.582C59.9008 39.0251 56.5242 45.2895 56.4456 46.2762H54.1328V57.9954H59.1237V50.9164H74.3508V57.9954H79.3417V46.2762H76.5294V15.1167H59.8777V22.5633L59.9008 22.582Z" fill="#929292"/>
<path fill-rule="evenodd" clip-rule="evenodd" d="M31.8691 50.9164H37.3735V34.948H45.5652V50.9164H51.0695V15.1167H45.5652V30.3125H37.7574C37.4614 30.3125 37.3735 30.2194 37.3735 29.9262V15.1167H31.8691V50.9164Z" fill="#929292"/>
<path fill-rule="evenodd" clip-rule="evenodd" d="M93.0455 19.2356C95.4461 19.2356 96.2047 20.7017 96.8615 23.1218C97.2357 24.7182 97.4143 26.3547 97.3935 27.9947C97.3935 28.7813 97.5276 29.0187 97.5276 29.6656H88.4385C88.4385 27.5014 89.1693 22.2189 90.5801 20.6179C91.1398 19.9849 91.9261 19.2217 93.0501 19.2217L93.0455 19.2356ZM82.5503 34.3011C82.5364 36.508 82.7504 38.7103 83.1886 40.8728C84.0027 44.3587 85.543 47.9797 88.6189 49.832C92.7818 52.3406 98.6747 51.7449 102.407 49.1339C102.713 48.9198 102.995 48.6685 103.286 48.4683L102.005 44.2098C101.543 44.4658 101.14 44.7404 100.641 45.0243C98.462 46.2437 96.9402 46.5276 94.4563 46.5276C89.9094 46.5276 88.4431 39.9419 88.4431 36.0976V34.3011H103.148C103.148 29.2327 103.328 23.6291 101.103 19.3613C99.8265 16.9179 97.4767 14.6001 93.8041 14.6001C91.2554 14.6001 89.2341 15.1493 87.5643 16.8155C86.26 18.0787 85.256 19.6219 84.6271 21.33C83.2117 24.9183 82.541 29.3584 82.541 34.3011H82.5503Z" fill="#929292"/>
<path fill-rule="evenodd" clip-rule="evenodd" d="M108.791 50.9164H114.295V33.2725C114.416 33.411 114.527 33.5571 114.628 33.71L123.634 50.9304H129.647C129.467 50.1578 128.81 49.2456 128.449 48.5288L120.35 33.2306C119.471 31.4341 119.365 32.6116 120.692 29.9215C121.044 29.2048 121.414 28.5998 121.803 27.8225L124.532 22.582C124.74 22.1817 124.906 21.963 125.133 21.5115C125.632 20.5015 128.246 15.6705 128.371 15.1167H122.741C122.626 15.6147 120.086 20.3293 119.624 21.2509L115.461 29.4096C115.267 29.8005 115.123 30.01 114.906 30.3963L114.309 31.4667V15.1167H108.791V50.9164Z" fill="#929292"/>
<path fill-rule="evenodd" clip-rule="evenodd" d="M130.439 31.3411C130.439 36.577 130.597 42.0689 133.28 46.2344C135.565 49.8087 138.502 51.4098 142.993 51.4098C144.965 51.4086 146.898 50.8559 148.576 49.8134C149.039 49.5295 149.584 48.957 150.033 48.836C150.01 47.7656 148.969 45.6154 148.881 44.5868C148.34 44.7311 147.739 45.4292 146.615 45.9132C143.927 47.0721 140.727 47.2769 138.807 44.6799C135.338 39.9932 135.107 25.1697 139.441 20.7901C142.049 18.1699 145.741 19.3008 148.187 21.2044C148.567 21.4976 148.423 21.5395 148.881 21.6698C148.983 20.4225 149.649 17.3786 149.649 16.392C148.851 15.9134 148.012 15.5084 147.142 15.1819C142.401 13.5157 136.351 15.0097 133.451 19.7941C131.466 23.0241 130.439 27.3525 130.439 31.3411Z" fill="#929292"/>
</svg>
