<svg width="152" height="24" viewBox="0 0 152 24" fill="none" xmlns="http://www.w3.org/2000/svg">
<path d="M12.6733 0.668076C12.5469 0.412074 12.2862 0.25 12.0007 0.25C11.7152 0.25 11.4545 0.412074 11.3282 0.668076L8.26984 6.8649L1.43124 7.85861C1.14872 7.89966 0.914011 8.09754 0.825792 8.36905C0.737573 8.64056 0.811146 8.93861 1.01558 9.13788L5.96403 13.9614L4.79586 20.7724C4.7476 21.0538 4.86327 21.3381 5.09423 21.5059C5.32519 21.6738 5.63138 21.6959 5.88407 21.563L12.0007 18.3473L18.1173 21.563C18.37 21.6959 18.6762 21.6738 18.9072 21.5059C19.1381 21.3381 19.2538 21.0538 19.2055 20.7724L18.0374 13.9614L22.9858 9.13788C23.1903 8.93861 23.2638 8.64056 23.1756 8.36905C23.0874 8.09754 22.8527 7.89966 22.5702 7.85861L15.7316 6.8649L12.6733 0.668076Z" fill="#00BA97"/>
<path d="M44.6733 0.668076C44.5469 0.412074 44.2862 0.25 44.0007 0.25C43.7152 0.25 43.4545 0.412074 43.3282 0.668076L40.2698 6.8649L33.4312 7.85861C33.1487 7.89966 32.914 8.09754 32.8258 8.36905C32.7376 8.64056 32.8111 8.93861 33.0156 9.13788L37.964 13.9614L36.7959 20.7724C36.7476 21.0538 36.8633 21.3381 37.0942 21.5059C37.3252 21.6738 37.6314 21.6959 37.8841 21.563L44.0007 18.3473L50.1173 21.563C50.37 21.6959 50.6762 21.6738 50.9072 21.5059C51.1381 21.3381 51.2538 21.0538 51.2055 20.7724L50.0374 13.9614L54.9858 9.13788C55.1903 8.93861 55.2638 8.64056 55.1756 8.36905C55.0874 8.09754 54.8527 7.89966 54.5702 7.85861L47.7316 6.8649L44.6733 0.668076Z" fill="#00BA97"/>
<path d="M76.6733 0.668076C76.5469 0.412074 76.2862 0.25 76.0007 0.25C75.7152 0.25 75.4545 0.412074 75.3282 0.668076L72.2698 6.8649L65.4312 7.85861C65.1487 7.89966 64.914 8.09754 64.8258 8.36905C64.7376 8.64056 64.8111 8.93861 65.0156 9.13788L69.964 13.9614L68.7959 20.7724C68.7476 21.0538 68.8633 21.3381 69.0942 21.5059C69.3252 21.6738 69.6314 21.6959 69.8841 21.563L76.0007 18.3473L82.1173 21.563C82.37 21.6959 82.6762 21.6738 82.9072 21.5059C83.1381 21.3381 83.2538 21.0538 83.2055 20.7724L82.0374 13.9614L86.9858 9.13788C87.1903 8.93861 87.2638 8.64056 87.1756 8.36905C87.0874 8.09754 86.8527 7.89966 86.5702 7.85861L79.7316 6.8649L76.6733 0.668076Z" fill="#00BA97"/>
<path d="M140.673 0.668076C140.547 0.412074 140.286 0.25 140.001 0.25C139.715 0.25 139.454 0.412074 139.328 0.668076L136.27 6.8649L129.431 7.85861C129.149 7.89966 128.914 8.09754 128.826 8.36905C128.738 8.64056 128.811 8.93861 129.016 9.13788L133.964 13.9614L132.796 20.7724C132.748 21.0538 132.863 21.3381 133.094 21.5059C133.325 21.6738 133.631 21.6959 133.884 21.563L140.001 18.3473L146.117 21.563C146.37 21.6959 146.676 21.6738 146.907 21.5059C147.138 21.3381 147.254 21.0538 147.206 20.7724L146.037 13.9614L150.986 9.13788C151.19 8.93861 151.264 8.64056 151.176 8.36905C151.087 8.09754 150.853 7.89966 150.57 7.85861L143.732 6.8649L140.673 0.668076Z" fill="#00BA97"/>
<path d="M108.673 0.668076C108.547 0.412074 108.286 0.25 108.001 0.25C107.715 0.25 107.454 0.412074 107.328 0.668076L104.27 6.8649L97.4312 7.85861C97.1487 7.89966 96.914 8.09754 96.8258 8.36905C96.7376 8.64056 96.8111 8.93861 97.0156 9.13788L101.964 13.9614L100.796 20.7724C100.748 21.0538 100.863 21.3381 101.094 21.5059C101.325 21.6738 101.631 21.6959 101.884 21.563L108.001 18.3473L114.117 21.563C114.37 21.6959 114.676 21.6738 114.907 21.5059C115.138 21.3381 115.254 21.0538 115.206 20.7724L114.037 13.9614L118.986 9.13788C119.19 8.93861 119.264 8.64056 119.176 8.36905C119.087 8.09754 118.853 7.89966 118.57 7.85861L111.732 6.8649L108.673 0.668076Z" fill="#00BA97"/>
</svg>
