<svg width="227" height="55" fill="none" xmlns="http://www.w3.org/2000/svg"><path d="M225.429 41.165a1.465 1.465 0 01-1.104-.468l-8.884-8.893a1.627 1.627 0 01-.466-1.133 1.58 1.58 0 01.466-1.11l8.884-8.917a1.54 1.54 0 012.208 0 1.605 1.605 0 010 2.242l-7.755 7.785 7.755 7.809a1.558 1.558 0 01.344 1.71c-.08.19-.197.363-.344.507a1.494 1.494 0 01-1.104.468z" fill="#D7526B"/><path d="M213.502 53.088a1.64 1.64 0 01-1.104-.468l-7.755-7.809-7.779 7.81a1.576 1.576 0 01-2.696-1.122c0-.42.166-.823.462-1.12l9.056-8.918a1.592 1.592 0 012.233 0l8.884 8.918a1.605 1.605 0 010 2.241 1.672 1.672 0 01-1.301.468zm-8.761-32.666a1.541 1.541 0 01-1.055-.468l-8.933-8.918a1.552 1.552 0 010-2.217 1.592 1.592 0 012.233 0l7.78 7.785 7.754-7.785a1.578 1.578 0 011.113-.483 1.564 1.564 0 011.123.456 1.577 1.577 0 01-.002 2.244l-8.884 8.918a1.555 1.555 0 01-1.104.468h-.025zm-20.688 20.817a1.489 1.489 0 01-1.104-.468 1.552 1.552 0 010-2.217l7.755-7.81-7.804-7.785a1.588 1.588 0 010-2.242 1.576 1.576 0 012.233 0l8.859 8.845a1.601 1.601 0 010 2.242l-8.859 8.917a1.64 1.64 0 01-1.129.444l.049.074zm.001 11.85a1.543 1.543 0 01-1.129-.469 1.601 1.601 0 010-2.242L224.3 8.869a1.576 1.576 0 012.696 1.121c0 .42-.167.824-.463 1.121l-41.351 41.51a1.64 1.64 0 01-1.104.469h-.024z" fill="#00BA97"/><path d="M225.356 52.965a1.494 1.494 0 01-1.104-.468l-41.253-41.412a1.606 1.606 0 010-2.241 1.551 1.551 0 011.104-.466 1.538 1.538 0 011.105.466l41.277 41.436a1.584 1.584 0 01-.254 2.426c-.26.171-.564.261-.875.26zm-200.128.222L5.178 31.63v21.556H0V8.474h5.178v20.324L24.59 8.474h6.552L10.626 30.202 31.78 53.187h-6.552zm38.922-10.52H43.56l-3.877 10.52h-5.498l16.86-44.713h5.62l16.957 44.713h-5.595l-3.877-10.52zm-1.817-4.927l-8.49-22.96-8.467 23.01 16.958-.05zm47.83-29.266v44.713h-4.295L81.991 18.254v34.933h-5.178V8.474h4.294l23.878 34.883V8.474h5.178zm4.025 22.344a23.24 23.24 0 011.534-9.09 23.177 23.177 0 014.946-7.77 23.065 23.065 0 017.575-5.216 22.987 22.987 0 0118.002 0 23.06 23.06 0 017.574 5.216 23.18 23.18 0 014.947 7.77 23.24 23.24 0 011.534 9.09 23.24 23.24 0 01-1.534 9.091 23.18 23.18 0 01-4.947 7.77 23.06 23.06 0 01-7.574 5.216 22.988 22.988 0 01-18.002 0 23.064 23.064 0 01-7.575-5.216 23.178 23.178 0 01-4.946-7.77 23.24 23.24 0 01-1.534-9.09zm40.934 0a18.02 18.02 0 00-1.362-6.872 17.966 17.966 0 00-3.878-5.827 17.887 17.887 0 00-5.804-3.893 17.833 17.833 0 00-19.497 3.893 17.966 17.966 0 00-3.878 5.827 18.02 18.02 0 003.878 19.571 17.9 17.9 0 005.804 3.893 17.834 17.834 0 0019.497-3.893 17.967 17.967 0 003.878-5.826 18.02 18.02 0 001.362-6.873zM61.352 2.685a1.57 1.57 0 01-1.13.468H47.585a1.541 1.541 0 01-1.457-.97 1.557 1.557 0 01-.113-.606c0-.419.165-.82.46-1.115A1.567 1.567 0 0147.584 0h12.54a1.575 1.575 0 011.571 1.577 1.556 1.556 0 01-.441 1.108h.098z" fill="#00BA97"/></svg>