<svg width="40" height="49" viewBox="0 0 40 49" fill="none" xmlns="http://www.w3.org/2000/svg">
<path d="M30.8569 13.9633C30.9536 13.8512 31.0727 13.7607 31.2065 13.6977C31.3404 13.6346 31.486 13.6004 31.6339 13.5972C31.7818 13.594 31.9288 13.622 32.0652 13.6793C32.2016 13.7365 32.3245 13.8218 32.4259 13.9296C32.5272 14.0375 32.6047 14.1654 32.6535 14.3051C32.7022 14.4448 32.721 14.5932 32.7087 14.7406C32.6964 14.8881 32.6533 15.0313 32.582 15.161C32.5108 15.2907 32.4131 15.404 32.2953 15.4935L16.5034 30.2372C16.3078 30.4274 16.0457 30.5338 15.7728 30.5338C15.4999 30.5338 15.2377 30.4274 15.0421 30.2372L9.78577 24.9732C9.58285 24.7764 9.46643 24.507 9.46213 24.2243C9.45782 23.9417 9.56598 23.6689 9.76282 23.466C9.95965 23.263 10.229 23.1466 10.5117 23.1423C10.7944 23.138 11.0672 23.2462 11.2701 23.443L15.8148 27.9878L30.8646 13.9633H30.8569ZM2.10406 2.10406V28.4162C2.20086 33.0974 4.12845 37.5543 7.47333 40.8307C10.8182 44.1071 15.314 45.9422 19.9962 45.9422C24.6784 45.9422 29.1741 44.1071 32.519 40.8307C35.8639 37.5543 37.7915 33.0974 37.8883 28.4162V2.10406H2.10406ZM2.10406 0H37.8959C38.454 0 38.9892 0.221676 39.3837 0.616263C39.7783 1.01085 40 1.54603 40 2.10406V28.4162C40 33.7206 37.8929 38.8076 34.1421 42.5584C30.3914 46.3091 25.3043 48.4162 20 48.4162C14.6957 48.4162 9.60859 46.3091 5.85786 42.5584C2.10714 38.8076 7.90407e-08 33.7206 0 28.4162L0 2.10406C0 1.54603 0.221677 1.01085 0.616264 0.616263C1.01085 0.221676 1.54603 0 2.10406 0Z" fill="white"/>
</svg>
