<svg width="66" height="63" viewBox="0 0 66 63" fill="none" xmlns="http://www.w3.org/2000/svg">
<path d="M42.9881 60.1411H61.6057C61.9887 60.1342 62.3535 59.9767 62.6211 59.7025C62.8887 59.4284 63.0374 59.0599 63.0351 58.6768V29.2861C63.0374 28.903 62.8887 28.5345 62.6211 28.2604C62.3535 27.9863 61.9887 27.8287 61.6057 27.8218H57.326V37.2526C57.3237 38.7753 56.7178 40.2349 55.6411 41.3116C54.5645 42.3883 53.1048 42.9942 51.5821 42.9965H42.9881V57.3433H22.941V42.9965H14.3469C12.8228 42.9965 11.3609 42.3917 10.2823 41.3147C9.20371 40.2378 8.59661 38.7768 8.5943 37.2526V27.8218H4.35828C4.16533 27.8195 3.97387 27.8557 3.79516 27.9285C3.61644 28.0013 3.45409 28.109 3.31765 28.2455C3.1812 28.3819 3.07343 28.5443 3.00067 28.723C2.92791 28.9017 2.89163 29.0932 2.89397 29.2861V58.6419C2.88687 58.8378 2.91963 59.033 2.99026 59.2158C3.06088 59.3986 3.16791 59.5652 3.30484 59.7053C3.44177 59.8455 3.60575 59.9564 3.78683 60.0314C3.96791 60.1063 4.16233 60.1436 4.35828 60.1411H22.941V57.2997H25.7912V60.1411H40.1379V57.2997H42.9881V60.1411ZM25.7912 54.4495H40.1379V51.5993H25.7912V54.4495ZM25.7912 48.7056H40.1379V42.953H25.7912V48.7056ZM14.3469 40.0941H51.5821C52.338 40.0941 53.063 39.7938 53.5975 39.2593C54.132 38.7248 54.4323 37.9998 54.4323 37.2439V13.1787C54.4323 10.5203 53.3763 7.97083 51.4965 6.09105C49.6167 4.21128 47.0672 3.15523 44.4088 3.15523C41.7504 3.15523 39.2009 4.21128 37.3211 6.09105C35.4413 7.97083 34.3853 10.5203 34.3853 13.1787C34.4006 13.3753 34.3752 13.5728 34.3106 13.7591C34.2459 13.9453 34.1435 14.1161 34.0096 14.2608C33.8758 14.4055 33.7135 14.521 33.5329 14.6C33.3523 14.679 33.1573 14.7197 32.9602 14.7197C32.7631 14.7197 32.5681 14.679 32.3875 14.6C32.2069 14.521 32.0445 14.4055 31.9107 14.2608C31.7769 14.1161 31.6744 13.9453 31.6098 13.7591C31.5451 13.5728 31.5197 13.3753 31.5351 13.1787C31.5489 11.8487 31.3006 10.5289 30.8043 9.29484C30.308 8.06076 29.5735 6.93651 28.6428 5.9863C27.712 5.03609 26.6031 4.27853 25.3796 3.75688C24.156 3.23523 22.8416 2.95971 21.5116 2.94604C18.8276 2.98052 16.2664 4.07632 14.3881 5.99385C12.5098 7.91137 11.4671 10.4946 11.4881 13.1787V37.2526C11.4892 37.6269 11.564 37.9973 11.7083 38.3427C11.8526 38.688 12.0635 39.0016 12.329 39.2655C12.5945 39.5293 12.9093 39.7383 13.2556 39.8805C13.6018 40.0226 13.9726 40.0952 14.3469 40.0941ZM61.6057 24.8845C62.7554 24.9051 63.8504 25.3794 64.652 26.2038C65.4537 27.0283 65.8969 28.1362 65.8853 29.2861V58.6419C65.8854 59.7843 65.4371 60.8811 64.6367 61.6961C63.8363 62.5112 62.7478 62.9794 61.6057 63H4.27983C3.13765 62.9794 2.04922 62.5112 1.24881 61.6961C0.448407 60.8811 4.02038e-05 59.7843 0.000225281 58.6419V29.2861C-0.0114594 28.1362 0.43181 27.0283 1.23344 26.2038C2.03506 25.3794 3.13007 24.9051 4.27983 24.8845H8.55944V13.1787C8.53143 9.72765 9.86909 6.40546 12.2807 3.93668C14.6924 1.4679 17.9823 0.0528049 21.4331 0C23.8151 0.0110957 26.1471 0.68465 28.1682 1.94533C30.1893 3.20601 31.8198 5.0041 32.8774 7.13849C33.9372 5.00404 35.5695 3.20618 37.5919 1.94564C39.6143 0.68509 41.9473 0.011475 44.3303 0C47.7825 0.0390837 51.0778 1.44744 53.4919 3.91546C55.906 6.38348 57.2412 9.70914 57.204 13.1613V24.8845H61.6057ZM39.9636 22.1128C39.8851 22.2784 38.0809 25.7648 32.9907 25.7648C27.9005 25.7648 26.0701 22.2784 26.0178 22.1128C25.8673 21.7756 25.8522 21.3936 25.9756 21.0456C26.0991 20.6977 26.3516 20.4105 26.6809 20.2436C27.0102 20.0767 27.3911 20.0429 27.7447 20.1491C28.0982 20.2552 28.3975 20.4933 28.5803 20.8141C28.6588 20.9361 29.7483 22.9146 33.0255 22.9146C36.3028 22.9146 37.3836 20.9012 37.4708 20.8141C37.65 20.4824 37.9529 20.2349 38.3137 20.1255C38.6744 20.0162 39.0638 20.0537 39.397 20.2301C39.7193 20.4071 39.9592 20.7035 40.0651 21.0556C40.1711 21.4077 40.1346 21.7873 39.9636 22.1128Z" fill="white"/>
</svg>
