<svg width="63" height="64" viewBox="0 0 63 64" fill="none" xmlns="http://www.w3.org/2000/svg">
<path fill-rule="evenodd" clip-rule="evenodd" d="M45.2347 61.2446H34.2733C34.395 61.0182 34.534 60.8015 34.689 60.5965C35.9971 58.409 35.6219 56.7887 35.703 54.3279C35.703 53.7899 35.8102 53.2573 36.0184 52.7611C36.2267 52.265 36.5318 51.8153 36.916 51.4382C37.3002 51.0611 37.7557 50.7642 38.2561 50.5648C38.7564 50.3655 39.2914 50.2676 39.83 50.2771C40.9126 50.2794 41.9513 50.7045 42.7243 51.4613C43.4973 52.2182 43.9433 53.247 43.9672 54.3279C43.9672 56.8394 43.6427 58.3179 44.8899 60.5458C45.0523 60.7657 45.1948 60.9995 45.3158 61.2446H45.2347ZM2.73781 55.7659H21.9227C21.9227 57.7913 21.8315 58.5002 22.7137 60.3129C22.8962 60.637 23.0787 60.9205 23.2714 61.2446H2.69725V55.7659H2.73781ZM19.1849 40.9704C19.0835 39.7652 19.1849 35.6841 19.1849 34.1549V27.3192C19.1127 25.4356 19.6148 23.5746 20.6248 21.9823C20.8287 21.6278 21.0592 21.2893 21.3143 20.9696C21.4268 20.8045 21.5522 20.6488 21.6895 20.5037C21.872 20.3214 21.9633 20.2708 22.156 20.0885L23.0787 19.2986C24.7641 18.0531 26.8113 17.3928 28.9078 17.4184C31.0042 17.444 33.0346 18.1541 34.689 19.4404C35.9895 20.4538 37.0146 21.7769 37.6702 23.2886C38.0441 24.14 38.277 25.0463 38.3597 25.9723C38.451 26.6204 38.1772 28.0584 39.4751 28.342C39.6994 28.3852 39.9309 28.3737 40.1498 28.3084C40.3687 28.2432 40.5686 28.1262 40.7325 27.9673C41.6147 27.0863 40.55 24.7672 42.872 21.567C44.0111 19.9076 45.6454 18.6494 47.5422 17.9715C49.439 17.2937 51.5016 17.2308 53.4362 17.7918C55.3709 18.3529 57.079 19.5092 58.3173 21.0962C59.5557 22.6831 60.2611 24.6199 60.3332 26.6305C60.4244 28.8585 60.3332 31.2181 60.3332 33.446V40.3121C60.411 41.2079 60.1882 42.1041 59.6999 42.8595C59.2115 43.6149 58.4854 44.1866 57.6359 44.4844C56.5712 44.9098 55.689 44.4844 55.0806 45.325C54.6649 45.882 54.8474 47.644 54.8474 48.4745V55.3001C54.8474 57.1938 55.0401 59.0572 53.083 60.3635C52.5321 60.7415 51.8976 60.9806 51.234 61.0602C50.5703 61.1398 49.8973 61.0577 49.2723 60.8208C48.6474 60.5839 48.0893 60.1993 47.6457 59.6999C47.2021 59.2005 46.8863 58.6012 46.7253 57.9533C46.1675 55.3608 47.648 52.9506 44.7682 49.6087C43.4966 48.368 41.8092 47.6427 40.0328 47.5732C39.1335 47.5379 38.2361 47.6805 37.3921 47.9925C36.5481 48.3046 35.7741 48.7801 35.1146 49.3918C34.4551 50.0034 33.923 50.7391 33.5489 51.5566C33.1749 52.3741 32.9662 53.2574 32.9348 54.1557C32.9348 55.6849 33.168 57.5888 32.5698 58.8445C32.2767 59.3825 31.8925 59.8656 31.4341 60.2724C30.9544 60.6605 30.3945 60.9374 29.7946 61.0829C29.1948 61.2285 28.57 61.2392 27.9655 61.1142C27.361 60.9892 26.7919 60.7316 26.2992 60.3601C25.8066 59.9886 25.4027 59.5124 25.1168 58.966C24.7152 58.0315 24.5548 57.0113 24.6504 55.9988C24.6504 55.0773 24.7417 46.2566 24.6504 45.7503C24.3361 44.5351 22.9874 44.8186 22.3081 44.6363C21.4782 44.4109 20.7392 43.9329 20.194 43.2686C19.6488 42.6043 19.3245 41.7868 19.2661 40.9299L19.1849 40.9704ZM13.6992 3.77393H49.3211C49.3211 5.16132 49.4124 14.2047 49.3211 14.8529C46.2609 15.1872 43.4399 16.6628 41.422 18.9847C40.8194 19.7305 40.2769 20.5229 39.7996 21.3544C38.7362 19.5003 37.2621 17.9137 35.4901 16.7162C33.4348 15.3649 31.0192 14.6642 28.5589 14.7057C26.0985 14.7473 23.708 15.5292 21.6997 16.9491C21.3826 17.1476 21.0869 17.3784 20.8175 17.6378C20.5417 17.8567 20.2777 18.0899 20.0266 18.3365C19.523 18.8758 19.0556 19.4475 18.6272 20.048C18.1935 20.6622 17.8199 21.3168 17.5118 22.0025C16.8145 23.5983 16.4687 25.3251 16.4978 27.066V40.5957C16.4673 41.9969 16.8706 43.3734 17.6529 44.5371C18.4351 45.7008 19.558 46.5949 20.8682 47.0972C21.059 47.1833 21.26 47.2446 21.4664 47.2795C22.0241 47.4213 21.9329 47.2795 21.9734 47.5124V53.0316H2.78851V14.7212H12.168C12.3825 14.7495 12.6005 14.7281 12.8053 14.6587C13.0102 14.5893 13.1962 14.4738 13.3492 14.321C13.5021 14.1683 13.6178 13.9824 13.6873 13.7779C13.7568 13.5733 13.7782 13.3555 13.7499 13.1414V3.77393H13.6992ZM2.73781 11.2375C2.87977 10.9135 7.80782 6.09301 8.31482 5.57653C10.3428 3.55113 9.79527 3.72329 10.9614 3.72329V11.9363H2.73781V11.2375ZM0 10.316V62.9156C0.324481 63.4219 0.415741 63.9282 1.25736 63.9789C1.90633 63.9789 7.43264 63.9789 8.35538 63.9789H50.5278C51.4646 64.0024 52.3962 63.8324 53.2642 63.4795C54.1321 63.1267 54.9178 62.5985 55.5718 61.9282C56.2258 61.2579 56.7341 60.4599 57.0649 59.5842C57.3957 58.7085 57.5417 57.7741 57.494 56.8394C57.494 53.8013 57.4027 50.4796 57.494 47.4213C58.2415 47.2281 58.9607 46.9387 59.6335 46.5605C60.2527 46.1734 60.8157 45.7031 61.3066 45.1629C62.3705 43.9039 62.9621 42.314 62.9797 40.6666C62.9797 36.6158 62.9797 32.5042 62.9797 28.423C62.9797 25.0406 62.6552 22.7215 60.7489 19.9771C59.7059 18.4522 58.3159 17.1959 56.6929 16.3111C55.2613 15.5087 53.6812 15.0056 52.0488 14.8326V3.1258C52.0589 0.989003 51.4099 1.03964 49.4631 1.03964H14.3076C12.817 1.03964 11.0526 0.938368 9.57219 1.03964C9.29004 1.08004 9.0196 1.17939 8.77849 1.3312C8.53738 1.483 8.33102 1.68387 8.17286 1.92069L7.0169 3.07516C6.4085 3.68278 0.375181 9.56656 0.14196 10.0324L0 10.2653V10.316Z" fill="white"/>
</svg>
