<svg width="30" height="30" viewBox="0 0 30 30" fill="none" xmlns="http://www.w3.org/2000/svg">
<circle cx="15.2996" cy="14.7" r="14.7" fill="#16B3DC"/>
<path d="M21.2405 18.0879C21.1777 18.0892 21.1153 18.0772 21.0574 18.0528C20.9996 18.0285 20.9475 17.9922 20.9046 17.9465L18.2024 15.2587C18.1121 15.1673 18.0612 15.0444 18.0605 14.9162C18.0616 14.7902 18.1126 14.6697 18.2024 14.5811L20.9046 11.8859C20.9484 11.8413 21.0006 11.8059 21.0583 11.7817C21.116 11.7576 21.1779 11.7451 21.2405 11.7451C21.303 11.7451 21.365 11.7576 21.4226 11.7817C21.4803 11.8059 21.5326 11.8413 21.5764 11.8859C21.6653 11.9764 21.7151 12.098 21.7151 12.2247C21.7151 12.3513 21.6653 12.473 21.5764 12.5634L19.2176 14.9162L21.5764 17.2764C21.6211 17.3201 21.6566 17.3722 21.6808 17.4297C21.705 17.4872 21.7175 17.549 21.7175 17.6114C21.7175 17.6738 21.705 17.7356 21.6808 17.7931C21.6566 17.8507 21.6211 17.9028 21.5764 17.9465C21.5332 17.9919 21.481 18.0279 21.4232 18.0522C21.3654 18.0765 21.3032 18.0887 21.2405 18.0879Z" fill="white"/>
<path d="M17.6134 21.6916C17.4876 21.6883 17.3676 21.6378 17.2775 21.5502L14.9187 19.19L12.5524 21.5502C12.4623 21.64 12.3401 21.6905 12.2127 21.6905C12.0854 21.6905 11.9632 21.64 11.8731 21.5502C11.783 21.4603 11.7324 21.3385 11.7324 21.2114C11.7324 21.0843 11.783 20.9625 11.8731 20.8726L14.6275 18.1774C14.7182 18.0887 14.8402 18.0391 14.9672 18.0391C15.0942 18.0391 15.2161 18.0887 15.3068 18.1774L18.009 20.8726C18.0979 20.9631 18.1477 21.0847 18.1477 21.2114C18.1477 21.3381 18.0979 21.4597 18.009 21.5502C17.957 21.6006 17.8948 21.6393 17.8266 21.6637C17.7583 21.6881 17.6856 21.6976 17.6134 21.6916Z" fill="white"/>
<path d="M14.9507 11.8188C14.8294 11.8148 14.7144 11.7641 14.6298 11.6774L11.9126 8.98215C11.8679 8.93848 11.8324 8.88635 11.8082 8.82882C11.784 8.77129 11.7715 8.70951 11.7715 8.64711C11.7715 8.5847 11.784 8.52293 11.8082 8.4654C11.8324 8.40786 11.8679 8.35574 11.9126 8.31206C12.0033 8.22339 12.1253 8.17372 12.2523 8.17372C12.3793 8.17372 12.5012 8.22339 12.5919 8.31206L14.9582 10.6648L17.317 8.31206C17.3609 8.26659 17.4134 8.23026 17.4715 8.2052C17.5296 8.18013 17.592 8.16683 17.6553 8.16605C17.7186 8.16528 17.7814 8.17705 17.8401 8.20068C17.8988 8.22431 17.9521 8.25934 17.9971 8.30372C18.0421 8.34811 18.0778 8.40097 18.1022 8.45923C18.1265 8.51749 18.139 8.57999 18.1389 8.64311C18.1388 8.70623 18.1262 8.76871 18.1017 8.82691C18.0772 8.88511 18.0414 8.93788 17.9963 8.98215L15.2941 11.6774C15.2504 11.7221 15.1981 11.7576 15.1405 11.7819C15.0828 11.8062 15.0208 11.8188 14.9582 11.8188H14.9507Z" fill="white"/>
<path d="M8.65754 18.1099C8.5948 18.1107 8.53257 18.0985 8.47477 18.0742C8.41696 18.0499 8.36483 18.0139 8.32163 17.9685C8.27694 17.9248 8.24144 17.8727 8.2172 17.8151C8.19297 17.7576 8.18048 17.6958 8.18048 17.6334C8.18048 17.571 8.19297 17.5092 8.2172 17.4517C8.24144 17.3942 8.27694 17.3421 8.32163 17.2984L10.6804 14.9382L8.3067 12.5854C8.21662 12.4956 8.16602 12.3737 8.16602 12.2467C8.16602 12.1196 8.21662 11.9977 8.3067 11.9079C8.39678 11.8181 8.51895 11.7676 8.64634 11.7676C8.77373 11.7676 8.8959 11.8181 8.98598 11.9079L11.6807 14.5808C11.7696 14.6713 11.8194 14.7929 11.8194 14.9196C11.8194 15.0462 11.7696 15.1679 11.6807 15.2583L8.98598 17.9536C8.89281 18.0402 8.77 18.0882 8.64261 18.0876L8.65754 18.1099Z" fill="white"/>
<path d="M8.65785 21.6914C8.59398 21.6923 8.5306 21.6802 8.47156 21.6559C8.41253 21.6316 8.35908 21.5955 8.31448 21.5499C8.22558 21.4594 8.17578 21.3378 8.17578 21.2111C8.17578 21.0844 8.22558 20.9628 8.31448 20.8724L20.8998 8.32684C20.9899 8.237 21.1121 8.18652 21.2394 8.18652C21.3668 8.18652 21.489 8.237 21.5791 8.32684C21.6692 8.41669 21.7198 8.53855 21.7198 8.66561C21.7198 8.79267 21.6692 8.91453 21.5791 9.00438L9.00122 21.5499C8.91109 21.6375 8.79114 21.688 8.66532 21.6914H8.65785Z" fill="white"/>
<path d="M21.2199 21.6542C21.1571 21.655 21.0949 21.6428 21.0371 21.6185C20.9793 21.5942 20.9272 21.5582 20.884 21.5128L8.33596 8.99703C8.24706 8.90657 8.19727 8.78494 8.19727 8.65826C8.19727 8.53159 8.24706 8.40996 8.33596 8.3195C8.37975 8.27492 8.43201 8.23951 8.48969 8.21534C8.54737 8.19116 8.6093 8.17871 8.67187 8.17871C8.73443 8.17871 8.79637 8.19116 8.85405 8.21534C8.91173 8.23951 8.96399 8.27492 9.00778 8.3195L21.5632 20.8427C21.6297 20.9097 21.6748 20.995 21.6927 21.0876C21.7105 21.1803 21.7005 21.2761 21.6637 21.363C21.6269 21.4499 21.5651 21.524 21.4861 21.5758C21.4071 21.6277 21.3144 21.655 21.2199 21.6542Z" fill="white"/>
</svg>
