<svg width="30" height="30" viewBox="0 0 30 30" fill="none" xmlns="http://www.w3.org/2000/svg">
<circle cx="14.7" cy="14.7" r="14.7" fill="#00BA97"/>
<path d="M21.2405 18.0889C21.1777 18.0901 21.1153 18.0782 21.0574 18.0538C20.9996 18.0294 20.9475 17.9932 20.9046 17.9474L18.2024 15.2597C18.1121 15.1683 18.0612 15.0454 18.0605 14.9172C18.0616 14.7912 18.1126 14.6707 18.2024 14.5821L20.9046 11.8869C20.9484 11.8423 21.0006 11.8069 21.0583 11.7827C21.116 11.7585 21.1779 11.7461 21.2405 11.7461C21.303 11.7461 21.365 11.7585 21.4226 11.7827C21.4803 11.8069 21.5326 11.8423 21.5764 11.8869C21.6653 11.9773 21.7151 12.099 21.7151 12.2256C21.7151 12.3523 21.6653 12.4739 21.5764 12.5644L19.2176 14.9172L21.5764 17.2774C21.6211 17.321 21.6566 17.3732 21.6808 17.4307C21.705 17.4882 21.7175 17.55 21.7175 17.6124C21.7175 17.6748 21.705 17.7366 21.6808 17.7941C21.6566 17.8516 21.6211 17.9038 21.5764 17.9474C21.5332 17.9928 21.481 18.0288 21.4232 18.0532C21.3654 18.0775 21.3032 18.0897 21.2405 18.0889Z" fill="white"/>
<path d="M17.6134 21.6926C17.4876 21.6893 17.3676 21.6388 17.2775 21.5512L14.9187 19.191L12.5524 21.5512C12.4623 21.641 12.3401 21.6915 12.2127 21.6915C12.0854 21.6915 11.9632 21.641 11.8731 21.5512C11.783 21.4613 11.7324 21.3394 11.7324 21.2124C11.7324 21.0853 11.783 20.9635 11.8731 20.8736L14.6275 18.1784C14.7182 18.0897 14.8402 18.04 14.9672 18.04C15.0942 18.04 15.2161 18.0897 15.3068 18.1784L18.009 20.8736C18.0979 20.9641 18.1477 21.0857 18.1477 21.2124C18.1477 21.3391 18.0979 21.4607 18.009 21.5512C17.957 21.6015 17.8948 21.6402 17.8266 21.6646C17.7583 21.689 17.6856 21.6986 17.6134 21.6926Z" fill="white"/>
<path d="M14.9507 11.8198C14.8294 11.8157 14.7144 11.7651 14.6298 11.6784L11.9126 8.98313C11.8679 8.93945 11.8324 8.88732 11.8082 8.82979C11.784 8.77226 11.7715 8.71049 11.7715 8.64808C11.7715 8.58568 11.784 8.5239 11.8082 8.46637C11.8324 8.40884 11.8679 8.35671 11.9126 8.31304C12.0033 8.22437 12.1253 8.1747 12.2523 8.1747C12.3793 8.1747 12.5012 8.22437 12.5919 8.31304L14.9582 10.6658L17.317 8.31304C17.3609 8.26757 17.4134 8.23124 17.4715 8.20618C17.5296 8.18111 17.592 8.1678 17.6553 8.16703C17.7186 8.16625 17.7814 8.17802 17.8401 8.20166C17.8988 8.22529 17.9521 8.26032 17.9971 8.3047C18.0421 8.34909 18.0778 8.40194 18.1022 8.4602C18.1265 8.51847 18.139 8.58097 18.1389 8.64409C18.1388 8.70721 18.1262 8.76968 18.1017 8.82788C18.0772 8.88608 18.0414 8.93885 17.9963 8.98313L15.2941 11.6784C15.2504 11.7231 15.1981 11.7586 15.1405 11.7829C15.0828 11.8072 15.0208 11.8197 14.9582 11.8198H14.9507Z" fill="white"/>
<path d="M8.65754 18.1109C8.5948 18.1117 8.53257 18.0995 8.47477 18.0752C8.41696 18.0508 8.36483 18.0148 8.32163 17.9694C8.27694 17.9258 8.24144 17.8736 8.2172 17.8161C8.19297 17.7586 8.18048 17.6968 8.18048 17.6344C8.18048 17.572 8.19297 17.5102 8.2172 17.4527C8.24144 17.3952 8.27694 17.343 8.32163 17.2994L10.6804 14.9392L8.3067 12.5864C8.21662 12.4966 8.16602 12.3747 8.16602 12.2476C8.16602 12.1206 8.21662 11.9987 8.3067 11.9089C8.39678 11.819 8.51895 11.7686 8.64634 11.7686C8.77373 11.7686 8.8959 11.819 8.98598 11.9089L11.6807 14.5818C11.7696 14.6722 11.8194 14.7939 11.8194 14.9205C11.8194 15.0472 11.7696 15.1688 11.6807 15.2593L8.98598 17.9546C8.89281 18.0412 8.77 18.0891 8.64261 18.0886L8.65754 18.1109Z" fill="white"/>
<path d="M8.65785 21.6923C8.59398 21.6932 8.5306 21.6812 8.47156 21.6569C8.41253 21.6325 8.35908 21.5965 8.31448 21.5509C8.22558 21.4604 8.17578 21.3388 8.17578 21.2121C8.17578 21.0854 8.22558 20.9638 8.31448 20.8733L20.8998 8.32782C20.9899 8.23798 21.1121 8.1875 21.2394 8.1875C21.3668 8.1875 21.489 8.23798 21.5791 8.32782C21.6692 8.41767 21.7198 8.53953 21.7198 8.66659C21.7198 8.79365 21.6692 8.91551 21.5791 9.00535L9.00122 21.5509C8.91109 21.6385 8.79114 21.689 8.66532 21.6923H8.65785Z" fill="white"/>
<path d="M21.2199 21.6552C21.1571 21.656 21.0949 21.6438 21.0371 21.6195C20.9793 21.5951 20.9272 21.5591 20.884 21.5137L8.33596 8.99801C8.24706 8.90754 8.19727 8.78592 8.19727 8.65924C8.19727 8.53256 8.24706 8.41094 8.33596 8.32047C8.37975 8.2759 8.43201 8.24049 8.48969 8.21631C8.54737 8.19214 8.6093 8.17969 8.67187 8.17969C8.73443 8.17969 8.79637 8.19214 8.85405 8.21631C8.91173 8.24049 8.96399 8.2759 9.00778 8.32047L21.5632 20.8437C21.6297 20.9107 21.6748 20.996 21.6927 21.0886C21.7105 21.1812 21.7005 21.2771 21.6637 21.364C21.6269 21.4509 21.5651 21.525 21.4861 21.5768C21.4071 21.6286 21.3144 21.6559 21.2199 21.6552Z" fill="white"/>
</svg>
