<svg width="52" height="52" fill="none" xmlns="http://www.w3.org/2000/svg"><path fill-rule="evenodd" clip-rule="evenodd" d="M33.866 18.821a.791.791 0 011.193.046c.318.374.3.962-.04 1.312l-12.663 13a.79.79 0 01-1.173-.022l-4.22-4.643a.995.995 0 010-1.313.791.791 0 011.193 0l3.644 4.008 12.066-12.388z" fill="#00BA97" stroke="#00BA97" stroke-width=".5"/><path d="M45.502 26.002c0-10.766-8.734-19.5-19.5-19.5s-19.5 8.734-19.5 19.5c0 10.765 8.734 19.5 19.5 19.5s19.5-8.735 19.5-19.5z" stroke="#00BA97" stroke-width="2.5" stroke-miterlimit="10"/></svg>