<svg width="58" height="58" viewBox="0 0 58 58" fill="none" xmlns="http://www.w3.org/2000/svg">
<path d="M26.7981 38.5188L36.8194 30.1803C37.0225 30.0114 37.1858 29.7999 37.2979 29.5608C37.41 29.3217 37.4682 29.0608 37.4682 28.7967C37.4682 28.5326 37.41 28.2718 37.2979 28.0327C37.1858 27.7936 37.0225 27.582 36.8194 27.4131L26.7981 19.0746C26.5353 18.8561 26.2157 18.7169 25.8767 18.6734C25.5377 18.6298 25.1933 18.6837 24.8838 18.8287C24.5743 18.9737 24.3125 19.2039 24.129 19.4923C23.9455 19.7806 23.8479 20.1153 23.8477 20.4571V37.1364C23.8479 37.4781 23.9455 37.8128 24.129 38.1012C24.3125 38.3895 24.5743 38.6197 24.8838 38.7647C25.1933 38.9097 25.5377 38.9636 25.8767 38.9201C26.2157 38.8765 26.5353 38.7373 26.7981 38.5188Z" fill="white"/>
<path d="M50.3955 28.7983C50.3955 16.8749 40.7217 7.20117 28.7983 7.20117C16.8749 7.20117 7.20117 16.8749 7.20117 28.7983C7.20117 40.7217 16.8749 50.3955 28.7983 50.3955C40.7217 50.3955 50.3955 40.7217 50.3955 28.7983Z" stroke="white" stroke-width="1.5" stroke-miterlimit="10"/>
</svg>
