<svg width="48" height="48" fill="none" xmlns="http://www.w3.org/2000/svg"><path d="M45.9 24A21.919 21.919 0 0032.376 3.754a21.9 21.9 0 00-23.874 4.75 21.916 21.916 0 0015.49 37.41c5.81 0 11.383-2.309 15.491-6.418A21.917 21.917 0 0045.9 24zm2.085 0a24.006 24.006 0 01-14.811 22.173 23.985 23.985 0 01-26.147-5.202 24.003 24.003 0 1139.147-26.16A24 24 0 0148 24h-.015zm-25.077-3.793a1.04 1.04 0 01-1 .759H16.44l4.05 3.375a1.048 1.048 0 01.31 1.168l-1.934 5.143 4.55-3.223a1.023 1.023 0 011.213 0l4.55 3.223-1.926-5.143a1.031 1.031 0 01.303-1.168l4.05-3.375h-5.468a1.039 1.039 0 01-1-.759l-1.085-3.792-1.084 3.792h-.06zm.068-7.866a1.04 1.04 0 012.002 0l1.873 6.546h7.583a1.046 1.046 0 01.667 1.851l-5.694 4.741 2.874 7.654a1.048 1.048 0 01-1.585 1.213l-6.704-4.763-6.695 4.779a1.047 1.047 0 01-1.585-1.214l2.874-7.654-5.695-4.74a1.047 1.047 0 01.667-1.851h7.583l1.835-6.562z" fill="#00BA97"/></svg>