<svg width="39" height="48" fill="none" xmlns="http://www.w3.org/2000/svg"><path d="M30.085 13.843a1.03 1.03 0 01.758-.363 1.015 1.015 0 01.772.33 1.05 1.05 0 01.276.804 1.06 1.06 0 01-.403.746L16.09 29.977a1.013 1.013 0 01-1.425 0L9.541 24.76a1.065 1.065 0 01-.022-1.495 1.03 1.03 0 011.47-.023l4.43 4.506 14.674-13.904h-.008zM2.052 2.086v26.086c.095 4.64 1.974 9.06 5.236 12.308a17.3 17.3 0 0012.21 5.067 17.3 17.3 0 0012.209-5.067 17.891 17.891 0 005.235-12.308V2.086H2.051zm0-2.086H36.95c.544 0 1.065.22 1.45.611s.6.922.6 1.475v26.086c0 5.259-2.054 10.302-5.711 14.02C29.632 45.912 24.672 48 19.5 48c-5.172 0-10.132-2.089-13.789-5.807C2.054 38.474 0 33.43 0 28.172V2.086C0 1.533.216 1.002.6.611A2.034 2.034 0 012.052 0z" fill="#00BA97"/></svg>