<svg width="47" height="46" fill="none" xmlns="http://www.w3.org/2000/svg"><path d="M30.48 43.863h13.205c.565 0 1.013-.478 1.013-1.06V21.385c0-.599-.448-1.077-1.013-1.077h-3.04v3.487-.393 3.777c0 2.325-1.827 4.189-4.07 4.189H30.48v10.461H16.26V31.367h-6.095c-2.243 0-4.07-1.863-4.07-4.188v-6.871H3.04c-.548 0-1.014.478-1.014 1.077v21.418c0 .582.466 1.06 1.014 1.06h13.22V41.83h2.027v2.034h10.165V41.83h2.027v2.034zm-12.192-4.136h10.165V37.64H18.288v2.086zm0-4.171h10.165v-4.188H18.288v4.188zm-8.123-6.274h26.41c1.13 0 2.027-.94 2.027-2.102V9.623c0-4.137-3.189-7.487-7.109-7.487s-7.11 3.35-7.11 7.487c0 .581-.448 1.06-1.012 1.06-.565 0-1.014-.479-1.014-1.06 0-4.137-3.189-7.487-7.109-7.487-3.936 0-7.126 3.35-7.126 7.487V27.18c0 1.162.914 2.102 2.043 2.102zm33.52-11.111c1.694 0 3.056 1.436 3.056 3.214v21.418c0 1.761-1.362 3.197-3.056 3.197H3.04C1.362 46 0 44.564 0 42.803V21.385c0-1.778 1.362-3.214 3.04-3.214h3.056V9.624C6.096 4.308 10.199 0 15.248 0c3.522 0 6.594 2.12 8.123 5.214C24.882 2.12 27.955 0 31.493 0c5.05 0 9.152 4.308 9.152 9.624v8.547h3.04zm-15.348-2.017c-.05.102-1.329 2.666-4.966 2.666-3.638 0-4.917-2.564-4.967-2.666a1.047 1.047 0 01.449-1.402c.498-.256 1.096-.051 1.362.445.033.102.83 1.538 3.156 1.538 2.325 0 3.122-1.47 3.155-1.538.266-.496.88-.701 1.363-.428.498.257.697.872.448 1.385z" fill="#00BA97"/><path d="M5.082 35.812a.775.775 0 00.764-.786.775.775 0 00-.764-.787.775.775 0 00-.764.787c0 .434.342.786.764.786zm7.276-.376a.775.775 0 00.764-.786.775.775 0 00-.764-.787.775.775 0 00-.764.787c0 .434.342.786.764.786zm-2.709 5.607a.775.775 0 00.764-.787.775.775 0 00-.764-.786.775.775 0 00-.764.786c0 .435.342.787.764.787zm32.142-5.231a.775.775 0 00.765-.786.775.775 0 00-.765-.787.775.775 0 00-.764.787c0 .434.342.786.764.786zm-7.257-.376a.775.775 0 00.764-.786.775.775 0 00-.764-.787.775.775 0 00-.764.787c0 .434.342.786.764.786zm2.689 5.607a.775.775 0 00.764-.787.775.775 0 00-.764-.786.775.775 0 00-.764.786c0 .435.342.787.764.787z" fill="#00BA97" stroke="#00BA97" stroke-width="1.782" stroke-miterlimit="22.926"/></svg>