<svg width="48" height="46" fill="none" xmlns="http://www.w3.org/2000/svg"><path fill-rule="evenodd" clip-rule="evenodd" d="M30.79 43.863h13.342c.566 0 1.026-.479 1.026-1.07v-21.42c0-.59-.46-1.068-1.026-1.068h-3.08v3.485-.395 3.787c0 2.31-1.837 4.182-4.105 4.182H30.79v10.454H16.422V31.364h-6.158c-2.267 0-4.105-1.873-4.105-4.182v-6.877h-3.08c-.566 0-1.025.479-1.025 1.069v21.42c0 .59.46 1.069 1.026 1.069h13.34v-2.045h2.053v2.045h10.263v-2.045h2.053v2.045zm-12.316-4.136h10.263v-2.09H18.474v2.09zm0-4.181h10.263v-4.182H18.474v4.181zm-8.21-6.273h26.683c1.134 0 2.053-.936 2.053-2.091V9.618c0-4.125-3.223-7.48-7.184-7.48-3.962 0-7.184 3.355-7.184 7.48 0 .59-.46 1.069-1.027 1.069-.566 0-1.026-.48-1.026-1.069 0-4.125-3.223-7.48-7.184-7.48-3.962 0-7.184 3.355-7.184 7.48v17.564c0 1.155.919 2.09 2.052 2.09zm33.868-11.105c1.7 0 3.079 1.435 3.079 3.206v21.42c0 1.77-1.379 3.206-3.08 3.206H3.08C1.379 46 0 44.565 0 42.794v-21.42c0-1.77 1.379-3.206 3.079-3.206h3.079v-8.55C6.158 4.315 10.302 0 15.395 0c3.57 0 6.673 2.12 8.21 5.214C25.143 2.12 28.245 0 31.815 0c5.093 0 9.238 4.315 9.238 9.618v8.55h3.079zm-15.506-2.019c-.053.11-1.352 2.67-5.022 2.67s-4.968-2.56-5.022-2.67a1.055 1.055 0 01.46-1.402 1.018 1.018 0 011.37.456c.046.086.855 1.525 3.192 1.525 2.359 0 3.16-1.464 3.193-1.527a1.02 1.02 0 011.38-.439c.499.263.7.877.45 1.387z" fill="#06BA98"/></svg>