<svg width="46" height="46" fill="none" xmlns="http://www.w3.org/2000/svg"><g clip-path="url(#clip0)"><path fill-rule="evenodd" clip-rule="evenodd" d="M31 6c4.962 0 9 4.038 9 9v10a5.008 5.008 0 01-4 4.899V35c0 2.757-2.243 5-5 5s-5-2.243-5-5v-2c0-1.654-1.346-3-3-3s-3 1.346-3 3v2c0 2.757-2.243 5-5 5s-5-2.243-5-5v-5.101A5.008 5.008 0 016 25V15c0-4.962 4.038-9 9-9 3.479 0 6.502 1.984 8 4.879C24.498 7.984 27.521 6 31 6zm7 19V15c0-3.86-3.14-7-7-7s-7 3.14-7 7a1 1 0 01-2 0c0-3.86-3.14-7-7-7s-7 3.14-7 7v10c0 1.654 1.346 3 3 3a1 1 0 011 1v6c0 1.654 1.346 3 3 3s3-1.346 3-3v-2c0-2.757 2.243-5 5-5s5 2.243 5 5v2c0 1.654 1.346 3 3 3s3-1.346 3-3v-6a1 1 0 011-1c1.654 0 3-1.346 3-3zm-10.543-5.88a.993.993 0 01.438 1.327C27.842 20.55 26.577 23 23 23c-3.577 0-4.842-2.45-4.894-2.552a1 1 0 011.783-.906C19.934 19.625 20.722 21 23 21c2.298 0 3.08-1.4 3.112-1.46.26-.48.862-.67 1.345-.42zM35 2a1 1 0 110-2h6a5 5 0 015 5v6a1 1 0 11-2 0V5a3 3 0 00-3-3h-6zm0 42h6a3 3 0 003-3v-6a1 1 0 112 0v6a5 5 0 01-5 5h-6a1 1 0 110-2zM11 2H5a3 3 0 00-3 3v6a1 1 0 11-2 0V5a5 5 0 015-5h6a1 1 0 110 2zm0 42a1 1 0 110 2H5a5 5 0 01-5-5v-6a1 1 0 112 0v6a3 3 0 003 3h6z" fill="#06BA98"/></g><defs><clipPath id="clip0"><path fill="#fff" d="M0 0h46v46H0z"/></clipPath></defs></svg>