<svg width="45" height="46" fill="none" xmlns="http://www.w3.org/2000/svg"><g clip-path="url(#clip0)"><path fill-rule="evenodd" clip-rule="evenodd" d="M22.395 46c12.37 0 22.394-10.296 22.394-23 0-12.703-10.025-23-22.394-23C10.028 0 0 10.298 0 23c0 12.703 10.027 23 22.395 23zm20.447-23c0-11.598-9.154-21-20.447-21C11.104 2 1.947 11.403 1.947 23c0 11.598 9.156 21 20.448 21 11.294 0 20.447-9.4 20.447-21zm-21.42 8.874v-7.957c-2.764-.476-4.87-2.943-4.87-5.917 0-2.972 2.106-5.44 4.87-5.917V10c0-.552.435-1 .973-1s.973.448.973 1v2.083c2.763.476 4.869 2.945 4.869 5.917 0 .552-.436 1-.974 1a.987.987 0 01-.974-1c0-1.863-1.24-3.43-2.92-3.874v7.957c2.762.476 4.868 2.945 4.868 5.917 0 2.974-2.105 5.441-4.869 5.917V36c0 .552-.435 1-.973 1a.987.987 0 01-.974-1v-2.083c-2.763-.476-4.868-2.943-4.868-5.917 0-.552.436-1 .973-1 .538 0 .974.448.974 1 0 1.864 1.241 3.43 2.921 3.874zm1.946 0c1.68-.444 2.922-2.01 2.922-3.874 0-1.863-1.242-3.43-2.922-3.874v7.748zM18.5 18c0-1.863 1.241-3.43 2.921-3.874v7.748C19.741 21.43 18.5 19.864 18.5 18z" fill="#06BA98"/></g><defs><clipPath id="clip0"><path fill="#fff" d="M0 0h44.789v46H0z"/></clipPath></defs></svg>