<svg width="38" height="46" fill="none" xmlns="http://www.w3.org/2000/svg"><path fill-rule="evenodd" clip-rule="evenodd" d="M35.217 0H1.957C.876 0 0 .895 0 2v25c0 10.493 8.322 19 18.587 19s18.587-8.507 18.587-19V2c0-1.105-.876-2-1.957-2zM1.957 2v25c0 9.389 7.445 17 16.63 17 9.185 0 16.63-7.611 16.63-17V2H1.957zM28.68 13.269a.963.963 0 011.383.049 1.016 1.016 0 01-.048 1.413l-14.674 14a.963.963 0 01-1.359-.024l-4.891-5a1.016 1.016 0 010-1.414.963.963 0 011.383 0l4.223 4.317L28.68 13.269z" fill="#06BA98"/></svg>