<svg width="44" height="51" fill="none" xmlns="http://www.w3.org/2000/svg"><path d="M23.099 29.712h.001a1.557 1.557 0 00.435-1.065l-.436 1.066zm0 0l-.015.016.015-.016zm.186-1.07h0v.003c-.003.17-.038.332-.098.48h0a1.31 1.31 0 01-.266.412l-.002.001v.001l-.013.014h0l-4.092 4.161s0 0 0 0a1.267 1.267 0 01-1.814 0h0a1.33 1.33 0 010-1.857l3.643-3.706.072-.073V14.051c0-.728.58-1.311 1.285-1.311.706 0 1.285.583 1.285 1.311v14.591zM10.773 48.127h.896l-.766-.463a21.945 21.945 0 01-4.281-3.394C2.513 40.091.25 34.535.25 28.622c0-5.912 2.263-11.468 6.372-15.648a21.894 21.894 0 014.758-3.673l.126-.072V4.683c0-2.448 1.957-4.433 4.354-4.433h12.28c2.396 0 4.354 1.985 4.354 4.434v4.545l.126.072a21.897 21.897 0 014.758 3.673c4.109 4.18 6.372 9.736 6.372 15.648 0 5.913-2.263 11.47-6.372 15.648a21.946 21.946 0 01-4.28 3.394l-.767.463h6.041c.706 0 1.285.584 1.285 1.312 0 .728-.58 1.311-1.285 1.311H5.628a1.298 1.298 0 01-1.285-1.311 1.3 1.3 0 011.285-1.312h5.145zm3.303-40.49V8l.338-.128A21.428 21.428 0 0122 6.495c2.632 0 5.192.472 7.586 1.377l.338.128V4.684c0-.995-.796-1.812-1.784-1.812H15.86c-.988 0-1.784.817-1.784 1.812v2.954zm9.209 40.178v.271l.27-.022c9.342-.766 16.81-8.367 17.563-17.86l.021-.27h-4.013a1.298 1.298 0 01-1.284-1.312c0-.728.579-1.31 1.284-1.31h4.013l-.021-.27C40.324 17.026 32.057 9.116 22 9.116c-10.057 0-18.324 7.91-19.118 17.924l-.021.27h4.013c.705 0 1.285.583 1.285 1.311 0 .729-.58 1.312-1.285 1.312H2.86l.021.27c.753 9.493 8.22 17.094 17.563 17.86l.27.022v-4.078c0-.728.58-1.31 1.285-1.31.706 0 1.285.582 1.285 1.31v3.807z" fill="#00BA97" stroke="#F9F9F9" stroke-width=".5"/></svg>