<svg width="47" height="47" fill="none" xmlns="http://www.w3.org/2000/svg"><path d="M30.274 32.532a1.597 1.597 0 102.258-2.258L25.758 23.5l6.774-6.774a1.597 1.597 0 10-2.258-2.258L23.5 21.242l-6.774-6.774a1.597 1.597 0 10-2.258 2.258l6.774 6.774-6.774 6.774a1.597 1.597 0 102.258 2.258l6.774-6.774 6.774 6.774z" fill="#00BA97" stroke="#F9F9F9"/><path d="M44.958 23.5a21.458 21.458 0 10-42.916 0 21.458 21.458 0 0042.916 0zm2.042 0A23.5 23.5 0 1132.494 1.787 23.493 23.493 0 0147 23.5z" fill="#00BA97"/></svg>