<svg width="215" height="58" fill="none" xmlns="http://www.w3.org/2000/svg"><path fill-rule="evenodd" clip-rule="evenodd" d="M23.965 13.313h9.579v10.774h10.763l-.055 9.786-10.708.17v10.619h-9.579l-.124-10.79-10.64-.094.026-9.625 10.738-.066V13.313zM5.635 32.508c1.603 11.692 12.69 21.93 26.57 19.791 11.764-1.816 21.641-12.615 19.67-26.817a23.678 23.678 0 00-3.09-8.657 23.488 23.488 0 00-6.145-6.804 23.287 23.287 0 00-8.262-3.912 23.189 23.189 0 00-9.118-.423C13.53 7.442 3.693 18.296 5.635 32.508zm162.92-.286c3.012-.246 5.635-.326 7.841.597 1.175 5.52-2.609 4.682-7.876 4.396l.035-4.993zM168.46 20.9a15.568 15.568 0 016.776.321l-.259 3.984-3.156.397-1.494.035-1.867-.186V20.9zm12.7 7.748c1.036-2.128 2.793-3.769 1.862-7.934-2.091-9.329-14.502-7.025-22.139-7.025l.234 30.61c5.297 0 15.433.904 19.371-1.505 4.272-2.65 6.228-11.712.672-14.146zm-81.402-4.671c0-4.627 7.847-6.077 7.847 1.004v8.029c0 7.025-7.847 5.786-7.847 1.003V23.977zm-7.467 11.542c.542 7.397 8.961 11.541 16.563 8.32 6.97-2.97 7.065-12.345 6.099-21.337-.787-7.302-8.728-11.683-16.574-8.33-7.273 3.126-6.74 12.133-6.073 21.347h-.015zM135.03 24.98c.702-2.223 2.116-4.34 3.147-6.327 3.42-6.61 4.724-4.968-16.952-4.968a14.925 14.925 0 000 7.025h8.085c-.996 3.207-3.366 6.493-3.669 9.349 3.798.26 8.234.095 7.492 4.928-.283 1.841-1.638 2.86-3.644 2.76-2.678-.126-2.37-1.676-3.455-2.86h-6.298c.359 4.957 2.49 7.587 5.865 9.107 6.825 3.066 15.787-1.385 15.214-10.874-.328-5.405-2.345-5.967-5.785-8.14zm64.541-3.904l-4.128-7.391h-8.005c-.647 2.072 2.215 5.324 3.156 6.915 7.802 13.192 6.617 7.17 6.622 23.725l7.841-.21c0-16.72-1.25-10.207 6.875-23.872 1.061-1.786 3.44-4.416 3.022-6.558h-8.07c-1.897 2.865-3.624 7.256-5.69 9.805a2.186 2.186 0 01-.244-.256l-.672-.838c-.025-.04-.658-1.21-.707-1.305v-.015zM71.007 39.031c0 6.815-.473 5.274 7.722 5.27h8.782l-.055-6.524h-4.247c0-5.094.423-20.073-.249-24.087l-11.515.065-.065 6.262 3.928.076.185 17.689c-3.485 0-4.481-.432-4.481 1.26l-.005-.01z" fill="#929292"/><path fill-rule="evenodd" clip-rule="evenodd" d="M24.559 1.742C40.724-.853 53.613 10.93 55.804 24.474c2.658 16.42-8.817 29.296-22.279 31.745-16.29 2.966-29.403-8.968-31.763-22.356C-1.215 16.972 10.778 3.95 24.56 1.742zm.995-1.506C10.574 2.178-1.693 14.995.194 32.408 1.792 47.17 15.384 59.882 32.221 57.77c14.666-1.842 26.993-15.115 25.081-32.287C55.69 11.005 42.058-1.912 25.55.236h.005zM145.67 42.042c1.329 3.874 9.737 3.352 8.169-2.865-1.19-4.702-10.27-3.252-8.169 2.865z" fill="#929292"/></svg>