<svg width="188" height="55" fill="none" xmlns="http://www.w3.org/2000/svg"><path fill-rule="evenodd" clip-rule="evenodd" d="M116.272 26.328c0-5.285 3.091-9.514 8.753-9.514 7.754 0 11.517 9.943 6.355 15.864a9.155 9.155 0 01-9.996 2.093 9.118 9.118 0 01-5.127-8.443h.015zm-6.383 0c0 12.415 11.802 18.243 20.305 13.108 1.336-.815 3.52-2.943 3.706-3.843 1.892 15.271-10.71 15.428-17.136 11.471-.814-.507-.878-.714-1.685-1.143l-2.984 4.793c7.961 6.693 21.641 5.429 26.082-3.007 2.52-4.779 1.992-10.779 1.992-16.85 0-6.257.093-12.579 0-18.829h-6.426l-.079 4.429a26.576 26.576 0 00-2.684-2.579c-7.797-5.757-21.048-.385-21.048 12.443l-.043.007zM31.75 11.571c.407-.407 3.342-4.328 3.57-5.1A19.705 19.705 0 0030.572 3.4a25.366 25.366 0 00-5.897-1.657C-1.621-1.786-9.154 33.214 13.165 41.786c6.319 2.428 13.616 1.592 19.592-1.43 1.942-.97 2.799-2.035 4.498-3.163l.093-14.136h-6.89l-.057 11c-3.449 3.236-16.108 5-21.605-4.364-4.677-7.979-.257-23.572 15.85-21.336 1.388.187 2.74.58 4.013 1.164 2.242 1.1 1.935 1.607 3.091 2.029v.021zm132.238 13.501c-.486-4.415 4.284-7.929 8.668-7.929 5.226 0 9.153 3.064 8.668 7.929h-17.336zm-6.554 2.671c0 14.85 16.528 19.029 26.096 12.3.821-.571 1.428-1.2 2.227-1.743-.485-1.107-2.584-3.521-3.748-4.078-7.49 6.764-17.693 2.607-18.085-4.008l23.854-.078c.636-5.486-.221-9.629-2.685-13.157-5.883-8.407-27.659-8.072-27.659 10.764zM53.89 17.728a9.49 9.49 0 0110.504 3.383 9.501 9.501 0 011.634 3.539c3.106 13.957-15.707 17.364-18.678 5.65-1.613-6.315 1.693-11.143 6.54-12.572zm3.37 25.393a16.09 16.09 0 0011.175-4.771c9.239-9.886 3.177-26.743-12.031-26.743a15.66 15.66 0 00-14.638 9.555 15.676 15.676 0 00-1.241 6.016C40.418 35.6 46.95 43.121 55.84 43.121h1.42zm24.262-16.228a9.288 9.288 0 012.628-6.579c2.677-2.735 4.455-2.907 7.982-2.907 4.02 0 7.233 3.258 8.225 6.358 2.735 8.57-4.52 16.15-12.973 12.964a8.753 8.753 0 01-2.313-1.357c-2.67-1.943-3.57-5.036-3.57-8.479h.021zm25.796.572c0-8.872-6.718-15.565-15.743-15.872a15.781 15.781 0 00-15.187 9.433 15.8 15.8 0 00-1.328 6.153c0 9.328 6.876 15.95 16.793 15.95 8.347 0 15.465-7.143 15.465-15.664zm39.319 15.206h6.347V.057L152.806 0l-6.269.057.1 42.614z" fill="#929292"/></svg>