<svg width="150" height="58" fill="none" xmlns="http://www.w3.org/2000/svg"><path fill-rule="evenodd" clip-rule="evenodd" d="M7.937 16.53c0-3.34.435-6.129 1.99-8.428 2.46-3.616 5.693-3.29 9.398-3.29V26.83h-3.071c-5.787 0-8.317-4.453-8.317-10.3zM2.05 14.987c0 3.932.13 6.939 2.086 10.239 1.332 2.285 2.979 3.625 5.208 4.83-.041.527-7.798 17.347-8.788 19.488A9.72 9.72 0 000 50.939h6.402c.041-.526.795-1.946 1.003-2.467l2.124-4.84c.351-.856.689-1.55 1.059-2.41l2.128-4.813c.402-.866 1.975-4.254 2.132-4.938h4.482v19.445h5.504V.05c-4.283 0-10.384-.42-13.987 1.121C5.23 3.57 2.058 8.95 2.058 14.986H2.05zm62.971 4.635h6.013v26.654h-9.343c.092-.395.31-.86.462-1.33 1.175-3.538 1.726-7.206 2.188-10.938l.426-5.12a13.72 13.72 0 01.092-1.861l.162-7.447v.042zm-5.12 2.96c0 16.443-3.377 22.707-3.455 23.694h-2.313v11.72h4.99v-7.08h15.228v7.08h4.99v-11.72H76.53v-31.16H59.878v7.447l.023.019zM31.87 50.916h5.503V34.948h8.192v15.968h5.505v-35.8h-5.505v15.197h-7.808c-.296 0-.383-.094-.383-.387v-14.81h-5.505v35.8zm61.176-31.68c2.4 0 3.159 1.466 3.816 3.886a20.23 20.23 0 01.532 4.873c0 .786.134 1.024.134 1.67h-9.09c0-2.164.731-7.446 2.142-9.047.56-.633 1.346-1.396 2.47-1.396l-.004.014zM82.55 34.3c-.014 2.207.2 4.41.639 6.572.814 3.486 2.354 7.107 5.43 8.959 4.163 2.509 10.056 1.913 13.788-.698.306-.214.588-.465.879-.666l-1.281-4.258c-.462.256-.865.53-1.364.814-2.179 1.22-3.7 1.504-6.185 1.504-4.547 0-6.013-6.586-6.013-10.43V34.3h14.705c0-5.068.18-10.672-2.045-14.94-1.276-2.443-3.626-4.76-7.299-4.76-2.549 0-4.57.548-6.24 2.214a12.107 12.107 0 00-2.937 4.515c-1.415 3.588-2.086 8.028-2.086 12.971h.01zm26.241 16.616h5.504V33.273c.121.138.232.284.333.437l9.006 17.22h6.013c-.18-.772-.837-1.684-1.198-2.401L120.35 33.23c-.879-1.797-.985-.62.342-3.31.352-.716.722-1.321 1.111-2.098l2.729-5.241c.208-.4.374-.619.601-1.07.499-1.01 3.113-5.841 3.238-6.395h-5.63c-.115.498-2.655 5.212-3.117 6.134l-4.163 8.159c-.194.39-.338.6-.555.986l-.597 1.07v-16.35h-5.518v35.8zm21.648-19.575c0 5.236.158 10.728 2.841 14.893 2.285 3.575 5.222 5.176 9.713 5.176a10.59 10.59 0 005.583-1.597c.463-.284 1.008-.856 1.457-.977-.023-1.07-1.064-3.22-1.152-4.25-.541.145-1.142.843-2.266 1.327-2.688 1.16-5.888 1.364-7.808-1.233-3.469-4.687-3.7-19.51.634-23.89 2.608-2.62 6.3-1.49 8.746.414.38.294.236.335.694.466.102-1.248.768-4.291.768-5.278a15.382 15.382 0 00-2.507-1.21c-4.741-1.666-10.791-.172-13.691 4.612-1.985 3.23-3.012 7.558-3.012 11.547z" fill="#929292"/></svg>