<svg width="152" height="24" fill="none" xmlns="http://www.w3.org/2000/svg"><path fill-rule="evenodd" clip-rule="evenodd" d="M140.001.25a.75.75 0 01.672.418l3.059 6.197 6.838.994a.751.751 0 01.416 1.279l-4.949 4.823 1.169 6.811a.75.75 0 01-1.089.791l-6.116-3.216-6.117 3.216a.75.75 0 01-1.088-.79l1.168-6.812-4.948-4.823a.75.75 0 01.415-1.28l6.839-.993 3.058-6.197a.75.75 0 01.673-.418zm0 2.445l-2.561 5.187a.749.749 0 01-.564.41l-5.725.832 4.142 4.038a.75.75 0 01.216.664l-.978 5.702 5.121-2.692a.75.75 0 01.698 0l5.12 2.692-.978-5.702a.752.752 0 01.216-.664l4.143-4.038-5.725-.831a.749.749 0 01-.565-.41l-2.56-5.188z" fill="#00BA97"/><path d="M12.673.668a.75.75 0 00-1.345 0L8.27 6.865l-6.839.994a.75.75 0 00-.415 1.279l4.948 4.823-1.168 6.811a.75.75 0 001.088.791l6.117-3.216 6.116 3.216a.75.75 0 001.088-.79l-1.168-6.812 4.949-4.823a.75.75 0 00-.416-1.28l-6.838-.993L12.673.668zm32 0a.75.75 0 00-1.345 0L40.27 6.865l-6.839.994a.75.75 0 00-.415 1.279l4.948 4.823-1.168 6.811a.75.75 0 001.088.791l6.117-3.216 6.116 3.216a.75.75 0 001.089-.79l-1.169-6.812 4.949-4.823a.75.75 0 00-.416-1.28l-6.838-.993L44.673.668zm32 0a.75.75 0 00-1.345 0L72.27 6.865l-6.839.994a.75.75 0 00-.415 1.279l4.948 4.823-1.168 6.811a.75.75 0 001.088.791l6.117-3.216 6.116 3.216a.75.75 0 001.088-.79l-1.168-6.812 4.949-4.823a.75.75 0 00-.416-1.28l-6.838-.993L76.673.668zm32 0a.75.75 0 00-1.345 0l-3.058 6.197-6.839.994a.75.75 0 00-.415 1.279l4.948 4.823-1.168 6.811a.75.75 0 001.088.791l6.117-3.216 6.116 3.216a.75.75 0 001.089-.79l-1.169-6.812 4.949-4.823a.751.751 0 00-.416-1.28l-6.838-.993-3.059-6.197z" fill="#00BA97"/></svg>