<svg width="152" height="24" fill="none" xmlns="http://www.w3.org/2000/svg"><path d="M12.673.668a.75.75 0 00-1.345 0L8.27 6.865l-6.839.994a.75.75 0 00-.415 1.279l4.948 4.823-1.168 6.811a.75.75 0 001.088.791l6.117-3.216 6.116 3.216a.75.75 0 001.088-.79l-1.168-6.812 4.949-4.823a.75.75 0 00-.416-1.28l-6.838-.993L12.673.668zm32 0a.75.75 0 00-1.345 0L40.27 6.865l-6.839.994a.75.75 0 00-.415 1.279l4.948 4.823-1.168 6.811a.75.75 0 001.088.791l6.117-3.216 6.116 3.216a.75.75 0 001.089-.79l-1.169-6.812 4.949-4.823a.75.75 0 00-.416-1.28l-6.838-.993L44.673.668zm32 0a.75.75 0 00-1.345 0L72.27 6.865l-6.839.994a.75.75 0 00-.415 1.279l4.948 4.823-1.168 6.811a.75.75 0 001.088.791l6.117-3.216 6.116 3.216a.75.75 0 001.088-.79l-1.168-6.812 4.949-4.823a.75.75 0 00-.416-1.28l-6.838-.993L76.673.668zm64 0a.75.75 0 00-1.345 0l-3.058 6.197-6.839.994a.75.75 0 00-.415 1.279l4.948 4.823-1.168 6.811a.75.75 0 001.088.791l6.117-3.216 6.116 3.216a.75.75 0 001.089-.79l-1.169-6.812 4.949-4.823a.751.751 0 00-.416-1.28l-6.838-.993-3.059-6.197zm-32 0a.75.75 0 00-1.345 0l-3.058 6.197-6.839.994a.75.75 0 00-.415 1.279l4.948 4.823-1.168 6.811a.75.75 0 001.088.791l6.117-3.216 6.116 3.216a.75.75 0 001.089-.79l-1.169-6.812 4.949-4.823a.751.751 0 00-.416-1.28l-6.838-.993-3.059-6.197z" fill="#00BA97"/></svg>