<svg width="227" height="55" viewBox="0 0 227 55" fill="none" xmlns="http://www.w3.org/2000/svg">
<path d="M225.429 41.165C225.222 41.1691 225.017 41.1296 224.827 41.0489C224.637 40.9683 224.466 40.8484 224.325 40.697L215.441 31.8037C215.144 31.5015 214.977 31.0949 214.975 30.6705C214.978 30.2536 215.146 29.855 215.441 29.5619L224.325 20.6441C224.469 20.4966 224.64 20.3794 224.83 20.2994C225.02 20.2194 225.223 20.1782 225.429 20.1782C225.635 20.1782 225.838 20.2194 226.028 20.2994C226.217 20.3794 226.389 20.4966 226.533 20.6441C226.825 20.9434 226.989 21.3458 226.989 21.7649C226.989 22.1841 226.825 22.5865 226.533 22.8858L218.778 30.6705L226.533 38.4798C226.68 38.6243 226.797 38.7968 226.877 38.9872C226.956 39.1775 226.997 39.3819 226.997 39.5884C226.997 39.7949 226.956 39.9993 226.877 40.1896C226.797 40.38 226.68 40.5525 226.533 40.697C226.391 40.8472 226.22 40.9663 226.03 41.0468C225.84 41.1274 225.635 41.1676 225.429 41.165Z" fill="#D7526B"/>
<path d="M213.502 53.0884C213.088 53.0774 212.694 52.9103 212.398 52.6203L204.643 44.811L196.864 52.6203C196.568 52.9176 196.166 53.0846 195.747 53.0846C195.328 53.0846 194.927 52.9176 194.63 52.6203C194.334 52.3231 194.168 51.9199 194.168 51.4994C194.168 51.079 194.334 50.6758 194.63 50.3786L203.686 41.4607C203.984 41.1673 204.385 41.0029 204.803 41.0029C205.22 41.0029 205.621 41.1673 205.919 41.4607L214.803 50.3786C215.095 50.6779 215.259 51.0803 215.259 51.4994C215.259 51.9186 215.095 52.321 214.803 52.6203C214.632 52.7871 214.427 52.9151 214.203 52.9959C213.979 53.0766 213.74 53.1081 213.502 53.0884Z" fill="#00BA97"/>
<path d="M204.741 20.4223C204.342 20.4088 203.964 20.2411 203.686 19.9542L194.753 11.0363C194.606 10.8918 194.489 10.7193 194.41 10.529C194.33 10.3386 194.289 10.1342 194.289 9.92775C194.289 9.72127 194.33 9.51687 194.41 9.32651C194.489 9.13616 194.606 8.96368 194.753 8.81917C195.051 8.52577 195.452 8.36144 195.87 8.36144C196.287 8.36144 196.688 8.52577 196.986 8.81917L204.766 16.6038L212.52 8.81917C212.665 8.66871 212.837 8.54852 213.028 8.46559C213.219 8.38265 213.425 8.33862 213.633 8.33606C213.841 8.33349 214.047 8.37244 214.24 8.45064C214.433 8.52883 214.609 8.64473 214.756 8.79158C214.904 8.93844 215.022 9.11333 215.102 9.30611C215.182 9.49888 215.223 9.70569 215.223 9.91454C215.222 10.1234 215.181 10.3301 215.1 10.5227C215.02 10.7152 214.902 10.8898 214.754 11.0363L205.87 19.9542C205.726 20.1021 205.554 20.2197 205.365 20.3001C205.175 20.3804 204.972 20.422 204.766 20.4223H204.741Z" fill="#00BA97"/>
<path d="M184.053 41.2387C183.847 41.2413 183.643 41.201 183.453 41.1205C183.263 41.0399 183.091 40.9208 182.949 40.7706C182.802 40.6261 182.685 40.4536 182.606 40.2633C182.526 40.0729 182.485 39.8685 182.485 39.6621C182.485 39.4556 182.526 39.2512 182.606 39.0608C182.685 38.8705 182.802 38.698 182.949 38.5535L190.704 30.7442L182.9 22.9595C182.604 22.6622 182.437 22.259 182.438 21.8386C182.438 21.4182 182.604 21.015 182.9 20.7177C183.196 20.4204 183.598 20.2534 184.017 20.2534C184.435 20.2534 184.837 20.4204 185.133 20.7177L193.992 29.5617C194.285 29.861 194.448 30.2634 194.448 30.6826C194.448 31.1017 194.285 31.5042 193.992 31.8035L185.133 40.7214C184.827 41.0081 184.423 41.1667 184.004 41.1648L184.053 41.2387Z" fill="#00BA97"/>
<path d="M184.054 53.0885C183.844 53.0915 183.635 53.0516 183.441 52.9711C183.247 52.8906 183.071 52.7713 182.925 52.6204C182.632 52.3211 182.469 51.9187 182.469 51.4995C182.469 51.0804 182.632 50.6779 182.925 50.3786L224.3 8.86859C224.596 8.57131 224.998 8.4043 225.417 8.4043C225.835 8.4043 226.237 8.57131 226.533 8.86859C226.829 9.16587 226.996 9.56906 226.996 9.98948C226.996 10.4099 226.829 10.8131 226.533 11.1104L185.182 52.6204C184.886 52.9104 184.492 53.0775 184.078 53.0885H184.054Z" fill="#00BA97"/>
<path d="M225.356 52.9651C225.15 52.9677 224.945 52.9274 224.755 52.8469C224.565 52.7663 224.394 52.6472 224.252 52.497L182.999 11.0855C182.707 10.7862 182.543 10.3838 182.543 9.96465C182.543 9.54551 182.707 9.14308 182.999 8.84376C183.143 8.69627 183.315 8.57911 183.504 8.49912C183.694 8.41913 183.898 8.37793 184.103 8.37793C184.309 8.37793 184.513 8.41913 184.702 8.49912C184.892 8.57911 185.064 8.69627 185.208 8.84376L226.485 50.2799C226.703 50.5018 226.851 50.7839 226.91 51.0904C226.969 51.3969 226.936 51.714 226.815 52.0015C226.694 52.2891 226.491 52.5342 226.231 52.7057C225.971 52.8772 225.667 52.9675 225.356 52.9651Z" fill="#00BA97"/>
<path d="M25.2277 53.1867L5.17805 31.6311V53.1867H0V8.47412H5.17805V28.798L24.5896 8.47412H31.1419L10.6261 30.2022L31.78 53.1867H25.2277Z" fill="#00BA97"/>
<path d="M64.1495 42.6675H43.56L39.6826 53.1867H34.1855L51.0449 8.47412H56.6647L73.6222 53.1867H68.027L64.1495 42.6675ZM62.3335 37.7405L53.8425 14.7807L45.376 37.7898L62.3335 37.7405Z" fill="#00BA97"/>
<path d="M110.163 8.47412V53.1867H105.868L81.9906 18.2542V53.1867H76.8125V8.47412H81.1071L104.985 43.3573V8.47412H110.163Z" fill="#00BA97"/>
<path d="M114.188 30.8184C114.087 27.7155 114.609 24.6238 115.722 21.7274C116.835 18.8309 118.518 16.1888 120.668 13.958C122.819 11.7272 125.395 9.95336 128.243 8.74194C131.09 7.53052 134.151 6.90625 137.244 6.90625C140.337 6.90625 143.398 7.53052 146.245 8.74194C149.093 9.95336 151.668 11.7272 153.819 13.958C155.97 16.1888 157.652 18.8309 158.766 21.7274C159.879 24.6238 160.401 27.7155 160.3 30.8184C160.401 33.9213 159.879 37.0129 158.766 39.9094C157.652 42.8058 155.97 45.448 153.819 47.6788C151.668 49.9096 149.093 51.6834 146.245 52.8948C143.398 54.1062 140.337 54.7305 137.244 54.7305C134.151 54.7305 131.09 54.1062 128.243 52.8948C125.395 51.6834 122.819 49.9096 120.668 47.6788C118.518 45.448 116.835 42.8058 115.722 39.9094C114.609 37.0129 114.087 33.9213 114.188 30.8184ZM155.122 30.8184C155.122 28.46 154.659 26.1247 153.76 23.9458C152.861 21.7669 151.543 19.7871 149.882 18.1195C148.221 16.4518 146.248 15.129 144.078 14.2265C141.907 13.324 139.581 12.8594 137.232 12.8594C134.882 12.8594 132.556 13.324 130.385 14.2265C128.215 15.129 126.243 16.4518 124.581 18.1195C122.92 19.7871 121.602 21.7669 120.703 23.9458C119.804 26.1247 119.342 28.46 119.342 30.8184C119.342 33.1768 119.804 35.5121 120.703 37.691C121.602 39.8699 122.92 41.8496 124.581 43.5173C126.243 45.1849 128.215 46.5078 130.385 47.4103C132.556 48.3128 134.882 48.7773 137.232 48.7773C139.581 48.7773 141.907 48.3128 144.078 47.4103C146.248 46.5078 148.221 45.1849 149.882 43.5173C151.543 41.8496 152.861 39.8699 153.76 37.691C154.659 35.5121 155.122 33.1768 155.122 30.8184Z" fill="#00BA97"/>
<path d="M61.3517 2.68522C61.2042 2.83496 61.0283 2.95353 60.8344 3.03392C60.6406 3.11431 60.4326 3.1549 60.2228 3.15328H47.5845C47.3773 3.15661 47.1716 3.1181 46.9795 3.04005C46.7875 2.96199 46.613 2.84598 46.4665 2.69891C46.32 2.55184 46.2044 2.3767 46.1267 2.18391C46.0489 1.99112 46.0106 1.78461 46.0139 1.57664C46.0139 1.15849 46.1793 0.757466 46.4739 0.461788C46.7684 0.16611 47.1679 0 47.5845 0L60.1247 0C60.5412 0 60.9407 0.16611 61.2353 0.461788C61.5298 0.757466 61.6953 1.15849 61.6953 1.57664C61.6982 1.78155 61.6607 1.98501 61.5848 2.17528C61.509 2.36555 61.3964 2.53886 61.2535 2.68522H61.3517Z" fill="#00BA97"/>
</svg>
