<svg width="66" height="63" fill="none" xmlns="http://www.w3.org/2000/svg"><path d="M42.988 60.141h18.618a1.455 1.455 0 001.43-1.464v-29.39a1.456 1.456 0 00-1.43-1.465h-4.28v9.43a5.753 5.753 0 01-5.744 5.744h-8.594v14.347H22.941V42.996h-8.594a5.752 5.752 0 01-5.753-5.743v-9.431H4.358a1.447 1.447 0 00-1.464 1.464v29.356a1.447 1.447 0 001.464 1.5h18.583V57.3h2.85v2.841h14.347V57.3h2.85v2.841zM25.791 54.45h14.347V51.6H25.79v2.85zm0-5.744h14.347v-5.753H25.79v5.753zm-11.444-8.612h37.235a2.85 2.85 0 002.85-2.85V13.179a10.023 10.023 0 10-20.047 0 1.432 1.432 0 01-1.425 1.54 1.429 1.429 0 01-1.425-1.54A10.128 10.128 0 0021.512 2.946a10.154 10.154 0 00-10.024 10.233v24.074a2.85 2.85 0 002.859 2.841zm47.259-15.21a4.358 4.358 0 014.28 4.402v29.356A4.358 4.358 0 0161.605 63H4.28A4.358 4.358 0 010 58.642V29.286a4.358 4.358 0 014.28-4.402h4.28V13.18A13.074 13.074 0 0121.432 0a12.839 12.839 0 0111.444 7.138A12.856 12.856 0 0144.33 0a13.022 13.022 0 0112.874 13.161v11.723h4.402zm-21.642-2.771c-.079.165-1.883 3.652-6.973 3.652s-6.92-3.487-6.973-3.652a1.439 1.439 0 012.562-1.299c.079.122 1.168 2.1 4.446 2.1 3.277 0 4.358-2.013 4.445-2.1a1.43 1.43 0 011.926-.584 1.403 1.403 0 01.567 1.883z" fill="#fff"/></svg>