<svg width="63" height="64" fill="none" xmlns="http://www.w3.org/2000/svg"><path fill-rule="evenodd" clip-rule="evenodd" d="M45.235 61.245H34.273a5 5 0 01.416-.648c1.308-2.188.933-3.808 1.014-6.27a4.05 4.05 0 014.127-4.05 4.15 4.15 0 012.894 1.184 4.14 4.14 0 011.243 2.867c0 2.511-.324 3.99.923 6.218.162.22.305.453.426.699h-.081zm-42.497-5.48h19.185c0 2.026-.091 2.735.79 4.548.183.324.366.607.558.932H2.697v-5.48h.04zM19.185 40.97c-.101-1.205 0-5.286 0-6.815v-6.836a9.298 9.298 0 011.44-5.337 7.99 7.99 0 01.69-1.012 3.75 3.75 0 01.374-.466c.183-.183.274-.233.467-.416l.923-.79a9.61 9.61 0 0111.61.142 9.845 9.845 0 012.981 3.849 8.57 8.57 0 01.69 2.683c.091.648-.183 2.086 1.115 2.37a1.42 1.42 0 001.258-.375c.882-.88-.183-3.2 2.139-6.4a9.584 9.584 0 0115.445-.47 9.552 9.552 0 012.016 5.534c.091 2.227 0 4.587 0 6.815v6.866a4.047 4.047 0 01-2.697 4.172c-1.065.426-1.947 0-2.555.841-.416.557-.234 2.319-.234 3.15V55.3c0 1.894.193 3.757-1.764 5.064a4.14 4.14 0 01-6.358-2.41c-.558-2.593.923-5.003-1.957-8.345a7.183 7.183 0 00-4.735-2.036 6.842 6.842 0 00-4.918 1.819 6.827 6.827 0 00-2.18 4.764c0 1.529.233 3.433-.365 4.688a5.297 5.297 0 01-1.136 1.428 4.169 4.169 0 01-6.317-1.306 6.07 6.07 0 01-.467-2.967c0-.922.092-9.742 0-10.249-.314-1.215-1.663-.931-2.342-1.114a4.138 4.138 0 01-3.042-3.706l-.081.04zM13.699 3.774h35.622c0 1.387.091 10.43 0 11.079a12.224 12.224 0 00-7.899 4.132 18.139 18.139 0 00-1.622 2.37 14.012 14.012 0 00-4.31-4.639 12.241 12.241 0 00-13.79.233 5.5 5.5 0 00-.883.689c-.275.219-.54.452-.79.698-.504.54-.971 1.112-1.4 1.712a11.707 11.707 0 00-1.115 1.955 12.139 12.139 0 00-1.014 5.063v13.53a6.8 6.8 0 004.37 6.501c.191.086.392.148.598.182.558.142.467 0 .507.233v5.52H2.79v-38.31h9.379a1.41 1.41 0 001.582-1.58V3.773h-.05zM2.738 11.238c.142-.324 5.07-5.145 5.577-5.661 2.028-2.026 1.48-1.854 2.646-1.854v8.213H2.738v-.698zM0 10.316v52.6c.324.506.416 1.012 1.257 1.063h49.271a6.812 6.812 0 005.044-2.05 6.795 6.795 0 001.922-5.09c0-3.038-.091-6.36 0-9.418a8.923 8.923 0 002.14-.86 7.968 7.968 0 001.673-1.398 7.083 7.083 0 001.673-4.496V28.423c0-3.382-.325-5.701-2.231-8.446a11.697 11.697 0 00-4.056-3.666 12.109 12.109 0 00-4.644-1.478V3.126c.01-2.137-.64-2.086-2.586-2.086H14.308c-1.491 0-3.255-.102-4.736 0a2.03 2.03 0 00-1.4.88L7.018 3.076c-.61.607-6.643 6.491-6.876 6.956L0 10.265v.051z" fill="#fff"/></svg>