<svg width="40" height="39" viewBox="0 0 40 39" fill="none" xmlns="http://www.w3.org/2000/svg">
<path fill-rule="evenodd" clip-rule="evenodd" d="M34.3044 9.60799C36.2609 12.536 37.3051 15.9785 37.3051 19.5C37.3051 24.2222 35.4292 28.751 32.0901 32.0901C28.751 35.4292 24.2222 37.3051 19.5 37.3051C15.9785 37.3051 12.536 36.2609 9.60799 34.3044C6.67995 32.348 4.39781 29.5672 3.05018 26.3137C1.70255 23.0603 1.34997 19.4802 2.03698 16.0264C2.724 12.5725 4.41976 9.39996 6.90986 6.90986C9.39995 4.41977 12.5725 2.72399 16.0264 2.03698C19.4802 1.34996 23.0603 1.70256 26.3137 3.05019C29.5672 4.39782 32.348 6.67995 34.3044 9.60799ZM35.7136 30.3336C37.8563 27.1269 39 23.3567 39 19.5H39.0123C39.0131 16.938 38.5089 14.4009 37.5284 12.0339C36.548 9.66685 35.1106 7.51632 33.2984 5.70526C31.4861 3.89419 29.3347 2.45812 26.9671 1.47917C24.5994 0.500212 22.062 -0.00242137 19.5 8.76995e-06C15.6433 8.76995e-06 11.8731 1.14366 8.66638 3.28635C5.45962 5.42904 2.96027 8.47452 1.48436 12.0377C0.00845294 15.6008 -0.377717 19.5216 0.374694 23.3043C1.12711 27.0869 2.98429 30.5615 5.71142 33.2886C8.43854 36.0157 11.9131 37.8729 15.6957 38.6253C19.4784 39.3777 23.3992 38.9916 26.9623 37.5156C30.5255 36.0397 33.571 33.5404 35.7136 30.3336ZM29.4322 13.0811C29.3244 13.1319 29.2284 13.2048 29.1506 13.2951H29.1568L17.034 24.592L13.3731 20.9311C13.2096 20.7726 12.9899 20.6855 12.7622 20.6889C12.5345 20.6924 12.3175 20.7862 12.159 20.9496C12.0004 21.1131 11.9133 21.3328 11.9168 21.5605C11.9202 21.7882 12.014 22.0052 12.1775 22.1638L16.4115 26.404C16.5691 26.5572 16.7803 26.6429 17.0001 26.6429C17.2199 26.6429 17.431 26.5572 17.5887 26.404L30.3093 14.5277C30.4042 14.4556 30.4828 14.3643 30.5402 14.2599C30.5976 14.1554 30.6323 14.04 30.6423 13.9212C30.6522 13.8025 30.637 13.6829 30.5978 13.5704C30.5585 13.4579 30.496 13.3548 30.4144 13.268C30.3328 13.1811 30.2338 13.1124 30.1239 13.0663C30.014 13.0202 29.8956 12.9976 29.7765 13.0002C29.6573 13.0027 29.54 13.0303 29.4322 13.0811Z" fill="white"/>
</svg>
