<svg width="64" height="64" fill="none" xmlns="http://www.w3.org/2000/svg"><path d="M30.604 44.349V33.224a8.354 8.354 0 010-16.465v-2.842a1.397 1.397 0 012.419-1.063 1.398 1.398 0 01.363 1.063v2.892a8.354 8.354 0 016.958 8.233 1.396 1.396 0 11-2.781 0 5.563 5.563 0 00-4.177-5.39v11.124a8.354 8.354 0 010 16.466v2.902a1.395 1.395 0 01-2.782 0v-2.953a8.344 8.344 0 01-6.948-8.233 1.395 1.395 0 012.781 0 5.563 5.563 0 004.167 5.39zm2.782 0a5.562 5.562 0 000-10.781v10.78zM30.604 19.65a5.572 5.572 0 000 10.781v-10.78zM61.22 32a29.218 29.218 0 10-58.437 0 29.218 29.218 0 0058.437 0zM64 32A32 32 0 1132 0a31.99 31.99 0 0132 32z" fill="#00BA97"/></svg>