<svg width="64" height="64" fill="none" xmlns="http://www.w3.org/2000/svg"><path d="M39.35 2.8a11.12 11.12 0 012.285 13.913h8.412V2.8H39.35zm-14.72 0H13.911v13.913h8.443A11.122 11.122 0 0124.629 2.8zm0 16.693H13.911v4.176a18.088 18.088 0 0036.166 0v-4.176H39.35a11.121 11.121 0 01-14.72 0zm-7.948 30.605h2.78a1.396 1.396 0 110 2.78h-2.78v2.78a1.395 1.395 0 01-2.78 0v-2.78h-2.78a1.395 1.395 0 010-2.78h2.78v-2.78a1.396 1.396 0 112.78 0v2.78zm13.923 11.121V44.537h2.78V61.22H61.17v-9.736a9.736 9.736 0 00-9.736-9.736h-9.1a20.889 20.889 0 01-20.828 0h-9.1a9.737 9.737 0 00-9.736 9.736v9.736h27.936zm15.56-22.243h5.288A12.517 12.517 0 0163.97 51.493v9.737A2.78 2.78 0 0161.169 64H2.78A2.78 2.78 0 010 61.22v-9.737a12.517 12.517 0 0112.517-12.517h5.288a20.778 20.778 0 01-6.683-15.297V2.8a2.782 2.782 0 012.78-2.8h36.145a2.78 2.78 0 012.78 2.78v20.89a20.808 20.808 0 01-6.672 15.297l.01.01zM40.34 11.122a8.35 8.35 0 10-8.351 8.34 8.342 8.342 0 008.351-8.34z" fill="#00BA97"/></svg>