<svg width="51" height="64" fill="none" xmlns="http://www.w3.org/2000/svg"><path d="M33.709 11.046a6.42 6.42 0 00-3.427.978 6.67 6.67 0 00-2.426 2.674 2.73 2.73 0 01-.988 1.092 2.628 2.628 0 01-2.794.001 2.73 2.73 0 01-.988-1.093 6.633 6.633 0 00-3.106-2.968 6.389 6.389 0 00-4.222-.393 6.539 6.539 0 00-3.573 2.346 6.861 6.861 0 00-1.43 4.105v13.313c.002.578.197 1.138.552 1.585.355.448.85.756 1.4.873a2.67 2.67 0 011.542.96c.391.495.604 1.112.603 1.75v5.387c.055.626.335 1.21.787 1.634.451.424 1.04.66 1.652.66.612 0 1.201-.236 1.652-.66a2.545 2.545 0 00.787-1.634v-2.127a6.084 6.084 0 01.338-2.373 5.96 5.96 0 011.224-2.04 5.768 5.768 0 011.91-1.376 5.63 5.63 0 014.567 0c.721.32 1.371.788 1.91 1.375a5.96 5.96 0 011.224 2.041c.269.76.384 1.567.338 2.373v2.117a2.55 2.55 0 00.786 1.634c.452.424 1.041.66 1.653.66.611 0 1.2-.236 1.652-.66a2.545 2.545 0 00.786-1.634v-5.378a2.808 2.808 0 01.603-1.748 2.67 2.67 0 011.544-.96 2.438 2.438 0 001.399-.874c.355-.447.55-1.007.552-1.585V17.788a6.85 6.85 0 00-1.92-4.76 6.475 6.475 0 00-4.626-1.982h.039zm-8.204 2.398a9.355 9.355 0 014.37-4.276 9.004 9.004 0 016.004-.592 9.216 9.216 0 015.079 3.346 9.673 9.673 0 011.99 5.856v13.313a5.378 5.378 0 01-1.159 3.34 5.119 5.119 0 01-2.949 1.837v5.388c0 .693-.133 1.38-.39 2.02a5.29 5.29 0 01-1.113 1.711 5.123 5.123 0 01-1.664 1.144 5.008 5.008 0 01-3.928 0 5.123 5.123 0 01-1.664-1.144 5.29 5.29 0 01-1.113-1.712 5.41 5.41 0 01-.39-2.02V39.53a3.2 3.2 0 00-1.02-1.98 3.034 3.034 0 00-2.038-.792c-.751 0-1.476.281-2.039.792a3.198 3.198 0 00-1.02 1.98v2.117c0 1.4-.54 2.742-1.503 3.731a5.06 5.06 0 01-3.628 1.546 5.06 5.06 0 01-3.628-1.546 5.354 5.354 0 01-1.503-3.731v-5.378a5.12 5.12 0 01-2.95-1.836 5.381 5.381 0 01-1.157-3.34V17.777a9.671 9.671 0 012.005-5.82 9.214 9.214 0 015.06-3.324 8.995 8.995 0 015.977.577 9.351 9.351 0 014.37 4.233zM2.688 2.759v34.502a24.06 24.06 0 001.599 9.129A23.544 23.544 0 009.2 54.168a22.8 22.8 0 007.46 5.212 22.274 22.274 0 008.84 1.833c3.036 0 6.042-.623 8.84-1.833a22.8 22.8 0 007.46-5.212 23.543 23.543 0 004.913-7.778 24.06 24.06 0 001.6-9.129V2.76H2.688zm0-2.759h45.624c.712 0 1.394.29 1.897.808a2.8 2.8 0 01.786 1.951v34.502A26.887 26.887 0 0149.2 47.454a26.31 26.31 0 01-5.493 8.682 25.479 25.479 0 01-8.334 5.818A24.89 24.89 0 0125.5 64a24.89 24.89 0 01-9.873-2.046 25.48 25.48 0 01-8.334-5.818A26.311 26.311 0 011.8 47.454 26.888 26.888 0 01.005 37.261V2.76c0-.362.07-.721.204-1.056A2.75 2.75 0 01.791.809 2.664 2.664 0 012.688 0z" fill="#00BA97"/></svg>