<svg width="63" height="64" fill="none" xmlns="http://www.w3.org/2000/svg"><path d="M59.738 32a29.737 29.737 0 00-4.806-16.233c-3.132-4.805-7.585-8.55-12.795-10.762a27.872 27.872 0 00-16.474-1.662c-5.53 1.127-10.61 3.91-14.598 7.996-3.988 4.087-6.703 9.293-7.803 14.96a29.892 29.892 0 001.622 16.883c2.158 5.338 5.813 9.902 10.502 13.112a28.023 28.023 0 0015.84 4.925c7.562 0 14.814-3.079 20.16-8.558 5.348-5.48 8.352-12.912 8.352-20.661zm2.714 0a32.567 32.567 0 01-5.263 17.778c-3.431 5.263-8.308 9.364-14.014 11.786a30.525 30.525 0 01-18.041 1.821c-6.057-1.235-11.621-4.282-15.988-8.758C4.779 50.152 1.805 44.45.6 38.243a32.738 32.738 0 011.777-18.489C4.74 13.907 8.743 8.91 13.877 5.393A30.69 30.69 0 0131.227 0a30.56 30.56 0 0111.957 2.427 31.175 31.175 0 0110.138 6.935 32.053 32.053 0 016.774 10.386A32.68 32.68 0 0162.471 32h-.02zm-32.638-5.057c-.08.291-.25.548-.485.73a1.33 1.33 0 01-.817.282h-7.116l5.27 4.5a1.4 1.4 0 01.444.713c.073.279.059.574-.04.845l-2.516 6.857 5.922-4.299a1.311 1.311 0 011.579 0l5.921 4.299-2.507-6.857a1.407 1.407 0 01-.047-.844c.07-.28.225-.53.442-.714l5.27-4.5H34.02a1.33 1.33 0 01-.818-.282 1.387 1.387 0 01-.485-.73l-1.411-5.057-1.412 5.057h-.079zm.09-10.488c.079-.292.249-.549.484-.732a1.331 1.331 0 011.636 0c.236.183.406.44.485.732l2.437 8.728h9.87c.28.001.552.09.78.255a1.418 1.418 0 01.53 1.506 1.4 1.4 0 01-.442.707l-7.412 6.321 3.74 10.205a1.415 1.415 0 01-.452 1.584 1.341 1.341 0 01-1.61.034l-8.724-6.351-8.715 6.371a1.338 1.338 0 01-1.61-.034 1.397 1.397 0 01-.479-.716 1.428 1.428 0 01.027-.868l3.74-10.205-7.412-6.32a1.4 1.4 0 01-.442-.707 1.429 1.429 0 01.033-.84c.095-.269.269-.502.497-.667a1.34 1.34 0 01.78-.255h9.87l2.388-8.748z" fill="#00BA97"/></svg>