<svg width="53" height="64" fill="none" xmlns="http://www.w3.org/2000/svg"><path d="M40.33 18.458a1.383 1.383 0 011.016-.484 1.368 1.368 0 011.035.44 1.4 1.4 0 01.37 1.071 1.408 1.408 0 01-.541.995L21.57 39.97a1.362 1.362 0 01-1.91 0l-6.87-6.959a1.417 1.417 0 01-.03-1.992 1.386 1.386 0 011.97-.03l5.94 6.007 19.67-18.538h-.01zM2.75 2.78v34.782a23.785 23.785 0 007.018 16.41 23.254 23.254 0 0016.367 6.757c6.12 0 11.996-2.426 16.367-6.757a23.785 23.785 0 007.018-16.41V2.78H2.75zm0-2.78h46.78c.73 0 1.429.293 1.944.815.516.521.806 1.229.806 1.966v34.782c0 7.011-2.754 13.736-7.656 18.694A25.992 25.992 0 0126.14 64a25.992 25.992 0 01-18.484-7.743C2.754 51.299 0 44.574 0 37.563V2.78C0 2.044.29 1.336.805.815A2.734 2.734 0 012.75 0z" fill="#00BA97"/></svg>