<svg width="30" height="30" fill="none" xmlns="http://www.w3.org/2000/svg"><circle cx="14.7" cy="14.7" r="14.7" fill="#D7526B"/><path d="M21.24 18.089a.45.45 0 01-.335-.142l-2.703-2.687a.477.477 0 010-.678l2.703-2.695a.47.47 0 01.671 0 .483.483 0 010 .677l-2.358 2.353 2.358 2.36a.468.468 0 010 .67.457.457 0 01-.335.142zm-3.627 3.604a.5.5 0 01-.335-.142l-2.36-2.36-2.366 2.36a.481.481 0 01-.82-.339c0-.127.051-.248.141-.338l2.755-2.696a.486.486 0 01.679 0l2.702 2.696a.483.483 0 010 .677.51.51 0 01-.396.142zM14.95 11.82a.47.47 0 01-.32-.142l-2.717-2.695a.468.468 0 010-.67.486.486 0 01.679 0l2.366 2.353 2.359-2.353a.478.478 0 11.68.67l-2.703 2.695a.47.47 0 01-.336.142h-.007zm-6.292 6.29a.457.457 0 01-.336-.14.468.468 0 010-.67l2.358-2.36-2.373-2.354a.478.478 0 01.34-.817.48.48 0 01.339.14l2.695 2.673a.483.483 0 010 .677l-2.695 2.696a.501.501 0 01-.343.134l.015.022zm0 3.582a.472.472 0 01-.344-.141.483.483 0 010-.678L20.9 8.328a.481.481 0 01.82.339c0 .127-.05.249-.14.338L9 21.551a.5.5 0 01-.336.141h-.007z" fill="#fff"/><path d="M21.22 21.655a.457.457 0 01-.336-.141L8.336 8.998a.483.483 0 01.154-.782.471.471 0 01.518.104l12.555 12.524a.476.476 0 01-.343.811z" fill="#fff"/></svg>